<svg width="317.643" height="317.643" xmlns="http://www.w3.org/2000/svg" fill="#000000" version="1.1" xml:space="preserve">
 <g>
  <title>Layer 1</title>
  <path d="m98.028,180l-18.028,0c6.18,28.963 29.032,51.815 57.995,57.995l0,-18.028c-19.289,-5.46 -34.507,-20.678 -39.967,-39.967z" id="svg_1"/>
  <path d="m137.995,98.028l0,-18.028c-28.963,6.18 -51.815,29.032 -57.995,57.995l18.028,0c5.46,-19.289 20.678,-34.507 39.967,-39.967z" id="svg_2"/>
  <path d="m180,219.967l0,18.028c28.963,-6.18 51.815,-29.032 57.995,-57.995l-18.028,0c-5.46,19.289 -20.678,34.507 -39.967,39.967z" id="svg_3"/>
  <path d="m303.282,18.48767l-288.922,0c-7.93,0 -14.36,6.43 -14.36,14.36l0,251.279c0,7.932 6.43,14.361 14.36,14.361l288.922,0c7.932,0 14.36,-6.43 14.36,-14.361l0,-251.279c0.0005,-3.965 -1.6065,-7.555 -4.20513,-10.15375c-1.29931,-1.29938 -2.84653,-2.35094 -4.56467,-3.07766c-0.85907,-0.36335 -1.76087,-0.6455 -2.69578,-0.83681c-0.46745,-0.09565 -0.94318,-0.1686 -1.42599,-0.21763c-0.2414,-0.02451 -0.48457,-0.04305 -0.72936,-0.05546c-0.12239,-0.0062 -0.24519,-0.01088 -0.36838,-0.014c-0.06159,-0.00156 -0.12328,-0.00273 -0.18506,-0.00351c-0.03089,-0.00039 -0.06181,-0.00069 -0.09274,-0.00089c-0.03094,-0.00019 -0.0619,-0.00029 -0.09289,-0.00029zm-259.605,232.365l-26.749,0l0,-34.273l26.749,0l0,34.273zm0,-75.23l-26.749,0l0,-34.27l26.749,0l0,34.27zm0,-75.228l-26.749,0l0,-34.274l26.749,0l0,34.274zm201.792,73.843l0,76.865l-70.897,0l-8.75,0l0,-22.10267l-14,0l0,21.76934l-8.75,0.33333l-70.898,0l0,-76.865l0,-8.75l17.826,0l0,-14l-17.826,0l0,-8.75l0,-76.865l70.898,0l8.928,0.08333l0,20.044l14,0l0,-20l9,0l69.82178,-0.12733l0,77.12733l0,8l-17.82178,0l0.14171,14.1598l18.32829,0.32787l0,8.75l-0.001,0zm55.246,76.615l-26.749,0l0,-34.273l26.749,0l0,34.273zm0,-75.23l-26.749,0l0,-34.27l26.749,0l0,34.27zm0,-75.228l-26.749,0l0,-34.274l26.749,0l0,34.274z" id="svg_4"/>
  <path transform="rotate(89.7526 209.124 108.872)" d="m238.12085,97.90314l0,-18.028c-28.963,6.18 -51.815,29.032 -57.995,57.995l18.028,0c5.46,-19.289 20.678,-34.507 39.967,-39.967z" id="svg_5"/>
 </g>

</svg>