<?xml version="1.0" ?><svg viewBox="0 0 64 64" xmlns="http://www.w3.org/2000/svg"><title/><g id="flat"><path d="M38,12H7V55a6,6,0,0,0,6,6H38a6,6,0,0,0,6-6V13a1,1,0,0,0-1-1Z" style="fill:#fc9d1d"/><path d="M7,52v3a6,6,0,0,0,6,6H38a6,6,0,0,0,6-6V20H7V34H7A36.06,36.06,0,0,1,26.14,24L44,20,42.09,37.71A20.8,20.8,0,0,1,20.61,56.25h0A27,27,0,0,1,8.26,52.72Z" style="fill:#f7941e"/><circle cx="12" cy="47" r="3" style="fill:#fdb14a"/><circle cx="33" cy="45" r="3" style="fill:#fdb14a"/><circle cx="18" cy="32" r="3" style="fill:#fdb14a"/><path d="M25.5,52h0A6.27,6.27,0,0,0,32,46V26a6.27,6.27,0,0,0-6.5-6h0A6.27,6.27,0,0,0,19,26V46A6.27,6.27,0,0,0,25.5,52Z" style="fill:#fdc477"/><rect height="26" rx="3.5" ry="3.5" style="fill:#fc9d1d" width="7" x="22" y="23"/><circle cx="36" cy="31" r="3" style="fill:#fdb14a"/><path d="M11,12H43a1,1,0,0,1,1,1v7a0,0,0,0,1,0,0H11a0,0,0,0,1,0,0V12A0,0,0,0,1,11,12Z" style="fill:#f9e0a8"/><path d="M44,20.34A6,6,0,0,0,40,26V46a6,6,0,0,0,4,5.66Z" style="fill:#fdb14a"/><path d="M7,20.34A6,6,0,0,1,11,26V46a6,6,0,0,1-4,5.66Z" style="fill:#fdc477"/><path d="M44,18H55a6,6,0,0,1,6,6V44a6,6,0,0,1-6,6H44V44h7a3.88,3.88,0,0,0,4-3.75V27.75A3.88,3.88,0,0,0,51,24H44Z" style="fill:#fdc477"/><circle cx="26" cy="43" r="2" style="fill:#fee785"/><circle cx="15" cy="54" r="2" style="fill:#fee785"/><circle cx="15" cy="41" r="1" style="fill:#fee785"/><circle cx="26" cy="29" r="1" style="fill:#fee785"/><circle cx="36" cy="38" r="1" style="fill:#fee785"/><circle cx="36" cy="55" r="2" style="fill:#fee785"/><path d="M43,12H11v8H22.69A10.42,10.42,0,0,0,30.05,17h0a10.42,10.42,0,0,1,4.62-2.68Z" style="fill:#f8d892"/><path d="M37,6a6.23,6.23,0,0,0-1.15.11,3,3,0,0,0-5.12-1.05A9,9,0,0,0,18,6.4,2.58,2.58,0,0,0,18,6a3,3,0,0,0-6,0s0,.06,0,.09a6,6,0,0,0-4.24,3,3.61,3.61,0,0,0-2.63.44A4.41,4.41,0,0,0,3,13.37V26.83A4.12,4.12,0,0,0,6.61,31,4,4,0,0,0,11,27V14a2,2,0,0,1,2-2h2v6.83A4.12,4.12,0,0,0,18.61,23,4,4,0,0,0,23,19V12H43A6,6,0,0,0,37,6Z" style="fill:#fee785"/><path d="M4,15.37a4.41,4.41,0,0,1,2.14-3.85,3.61,3.61,0,0,1,2.63-.44,6,6,0,0,1,4.24-3S13,8,13,8a3,3,0,0,1,5-2.24A3,3,0,0,0,12,6s0,.06,0,.09a6,6,0,0,0-4.24,3,3.61,3.61,0,0,0-2.63.44A4.41,4.41,0,0,0,3,13.37V26.83a4.28,4.28,0,0,0,1.09,2.85A4.81,4.81,0,0,1,4,28.83Z" style="fill:#fff8ae"/><path d="M22,5.94a9,9,0,0,1,9.73,1.12,3,3,0,0,1,5.12,1A6.23,6.23,0,0,1,38,8a6,6,0,0,1,4.77,2.37A6,6,0,0,0,37,6a6.23,6.23,0,0,0-1.15.11,3,3,0,0,0-5.12-1.05,9,9,0,0,0-12.46,1C18.72,6.58,20.81,6.53,22,5.94Z" style="fill:#fff8ae"/><path d="M7,34H9V44.17A6.84,6.84,0,0,1,7,49H7Z" style="fill:#fdb14a"/><path d="M44,24h0a6.84,6.84,0,0,0-2,4.83V44.17A6.84,6.84,0,0,0,44,49h0Z" style="fill:#f7941e"/><path d="M44,44h7a4,4,0,0,0,4-4V27h0a39.1,39.1,0,0,1,2,12.32v3.21a4,4,0,0,1-4.44,4l-.12,0A25,25,0,0,1,44,44Z" style="fill:#f9e0a8"/><path d="M44,18H55a6,6,0,0,1,6,6v2l-2-3.3a4,4,0,0,0-3-1.92l-2.71-.3A32,32,0,0,1,45,18.39Z" style="fill:#f9e0a8"/></g></svg>