<?xml version="1.0" ?><svg id="Layer_1" style="enable-background:new 0 0 44 44;" version="1.1" viewBox="0 0 44 44" xml:space="preserve" xmlns="http://www.w3.org/2000/svg" xmlns:xlink="http://www.w3.org/1999/xlink"><style type="text/css">
	.st0{fill:#F6B545;}
	.st1{fill:#FFCB5B;}
	.st2{fill:#F19920;}
	.st3{fill:#C97629;}
	.st4{fill:#B06328;}
	.st5{fill:#FFE278;}
	.st6{fill:#FFE27A;}
	.st7{fill:#E78825;}
	.st8{fill:#DA8C36;}
	.st9{fill:#F5F6F6;}
	.st10{fill:#4C9CD6;}
	.st11{fill:#F26A56;}
	.st12{fill:#3D545F;}
	.st13{fill:#70B7E5;}
	.st14{fill:#D5E3EF;}
	.st15{fill:#B0C4D9;}
	.st16{fill:#99B5CD;}
	.st17{fill:#B0C4D8;}
	.st18{fill:#ECEFF9;}
	.st19{fill:#3689C9;}
	.st20{fill:#C4D7E5;}
	.st21{fill:#1470B8;}
	.st22{fill:#99B4CD;}
	.st23{fill:#82A7C4;}
	.st24{fill:#9BA7AF;}
	.st25{fill:#A35425;}
	.st26{fill:#72818B;}
	.st27{fill:#ECF0F9;}
	.st28{fill:#F04D4E;}
	.st29{fill:#DB343F;}
	.st30{fill:#C61C31;}
	.st31{fill:#0E9347;}
	.st32{fill:#0D8944;}
	.st33{fill:#3BB54A;}
	.st34{fill:#89C763;}
	.st35{fill:#FFCA5D;}
	.st36{fill:#35495C;}
	.st37{fill:#123247;}
	.st38{fill:#576D7E;}
	.st39{fill:#EE2C39;}
	.st40{fill:#CC202C;}
	.st41{fill:#9F5223;}
	.st42{fill:#F04B4D;}
	.st43{fill:#DE333F;}
	.st44{fill:#7F4122;}
	.st45{fill:#73371B;}
	.st46{fill:#24A049;}
	.st47{fill:#8D4928;}
	.st48{fill:#8FCC92;}
	.st49{fill:none;stroke:#0E9347;stroke-width:2;stroke-linecap:round;stroke-linejoin:round;stroke-miterlimit:10;}
	.st50{fill:none;stroke:#FFFFFF;stroke-width:2;stroke-linecap:round;stroke-linejoin:round;stroke-miterlimit:10;}
	.st51{fill:#FFFFFF;}
	.st52{fill:#C87729;}
	.st53{fill:#F79548;}
	.st54{fill:#F37321;}
	.st55{fill:#72AF48;}
	.st56{fill:#6F707E;}
	.st57{fill:#595A66;}
	.st58{fill:#494A52;}
	.st59{fill:#90C962;}
	.st60{fill:#71B956;}
	.st61{fill:#35363E;}
	.st62{fill:#598E42;}
	.st63{fill:#7C7D87;}
	.st64{fill:#C9D5E3;}
	.st65{fill:#ADD587;}
	.st66{fill:#FCBB76;}
	.st67{fill:#6C9ABB;}
	.st68{fill:#0261A5;}
	.st69{fill:#F26A5F;}
	.st70{fill:#D4E3EE;}
	.st71{fill:#90CEF1;}
	.st72{fill:#92582B;}
	.st73{fill:#7C4B22;}
	.st74{fill:#6E421B;}
	.st75{fill:#E7A54C;}
	.st76{fill:#F7B84E;}
	.st77{fill:#E2B698;}
	.st78{fill:#D8A984;}
	.st79{fill:#EFC9AE;}
	.st80{fill:#F48476;}
	.st81{fill:#EA5434;}
	.st82{fill:#014463;}
	.st83{fill:#0B5068;}
	.st84{fill:#FFEDA9;}
	.st85{fill:#FFFCD5;}
	.st86{fill:#B0C9DB;}
	.st87{fill:#EAECED;}
	.st88{fill:#B2D890;}
	.st89{fill:#ACD6F2;}
	.st90{fill:#E2E7F0;}
	.st91{fill:#D5DFEA;}
	.st92{fill:#F04D4F;}
	.st93{fill:#89ABC6;}
	.st94{fill:#92C5EB;}
	.st95{fill:#FFDB6F;}
	.st96{fill:#D1D9E1;}
	.st97{fill:#687A8A;}
	.st98{fill:#C7EAFB;}
	.st99{fill:#EFF9FE;}
	.st100{fill:#EBA553;}
	.st101{fill:#F19F35;}
	.st102{fill:#D3E2EB;}
	.st103{fill:#636892;}
	.st104{fill:#424C7E;}
	.st105{fill:none;stroke:#231F20;stroke-width:2;stroke-linecap:round;stroke-linejoin:round;stroke-miterlimit:10;}
	.st106{fill:#BCD1E2;}
	.st107{fill:#FAA845;}
	.st108{fill:#8B5428;}
	.st109{fill:#697F90;}
	.st110{fill:#7B93A3;}
	.st111{fill:#4F6473;}
</style><g><polyline class="st42" points="29,26.5 29,43.5 22,39.5 15,43.5 15,26.5  "/><path class="st43" d="M22,26.5h7v3.2c-0.5,0.3-0.9,0.7-1.1,1.2h0c-0.8,1.6-2.8,2.1-4.3,1.1c-0.5-0.3-1.1-0.5-1.6-0.5v7.9l-7,4V29.7   v-3.2H22z"/><path class="st1" d="M23.6,1L23.6,1c1.5-0.9,3.5-0.4,4.3,1.1l0,0c0.5,1,1.6,1.7,2.8,1.6l0,0c1.8-0.1,3.2,1.4,3.1,3.1v0   c-0.1,1.2,0.6,2.3,1.6,2.8l0,0c1.6,0.8,2.1,2.8,1.1,4.3l0,0c-0.6,1-0.6,2.2,0,3.2l0,0c0.9,1.5,0.4,3.5-1.1,4.3l0,0   c-1,0.5-1.7,1.6-1.6,2.8v0c0.1,1.8-1.4,3.2-3.1,3.1h0c-1.2-0.1-2.3,0.6-2.8,1.6l0,0c-0.8,1.6-2.8,2.1-4.3,1.1l0,0   c-1-0.6-2.2-0.6-3.2,0l0,0c-1.5,0.9-3.5,0.4-4.3-1.1l0,0c-0.5-1-1.6-1.7-2.8-1.6h0c-1.8,0.1-3.2-1.4-3.1-3.1v0   c0.1-1.2-0.6-2.3-1.6-2.8l0,0c-1.6-0.8-2.1-2.8-1.1-4.3l0,0c0.6-1,0.6-2.2,0-3.2l0,0c-0.9-1.5-0.4-3.5,1.1-4.3l0,0   c1-0.5,1.7-1.6,1.6-2.8v0c-0.1-1.8,1.4-3.2,3.1-3.1l0,0c1.2,0.1,2.3-0.6,2.8-1.6l0,0C16.9,0.6,18.9,0,20.4,1l0,0   C21.4,1.6,22.6,1.6,23.6,1z"/><circle class="st2" cx="22" cy="15.5" r="10"/><path class="st0" d="M22,3.5c-6.6,0-12,5.4-12,12s5.4,12,12,12s12-5.4,12-12S28.6,3.5,22,3.5z M22,25.5c-5.5,0-10-4.5-10-10   c0-5.5,4.5-10,10-10s10,4.5,10,10C32,21,27.5,25.5,22,25.5z"/><path class="st6" d="M30.7,3.7c-1.2,0.1-2.3-0.6-2.8-1.6h0c-0.1-0.1-0.2-0.3-0.3-0.4L9.3,21.9c0.6,0.6,1,1.4,0.9,2.3h0   c0,0.6,0.1,1.2,0.4,1.7L30.8,3.7C30.7,3.7,30.7,3.7,30.7,3.7z"/><path class="st0" d="M12.4,18.4c0.4,1.3,1,2.4,1.9,3.5L27.6,7.2C26.5,6.5,25.3,6,24,5.7L12.4,18.4z"/><g><path class="st1" d="M12.9,23.4l1.3-1.5c-0.8-1-1.5-2.2-1.9-3.5l-1.5,1.7C11.4,21.3,12.1,22.4,12.9,23.4z"/><path class="st1" d="M24,5.7c1.3,0.3,2.5,0.8,3.6,1.5L29,5.7c-1-0.7-2.2-1.3-3.4-1.7L24,5.7z"/></g><path class="st6" d="M35.4,9.6c-1-0.5-1.7-1.6-1.6-2.8h0c0.1-1.1-0.5-2.1-1.4-2.7L11.7,26.9c0.5,0.3,1,0.4,1.6,0.4   c1.2-0.1,2.3,0.6,2.8,1.6h0c0.2,0.4,0.5,0.8,0.9,1L35.4,9.6C35.4,9.6,35.4,9.6,35.4,9.6z"/><path class="st0" d="M21,25.5l10.8-11.8c-0.4-2.1-1.5-4-3-5.4L15.3,22.9C16.9,24.3,18.9,25.2,21,25.5z"/><g><path class="st1" d="M21,25.5c-2.2-0.2-4.2-1.1-5.7-2.5L14,24.4c1.5,1.4,3.4,2.4,5.5,2.8L21,25.5z"/><path class="st1" d="M30.1,6.7l-1.3,1.5c1.5,1.4,2.6,3.3,3,5.4l1.6-1.8C32.8,9.8,31.6,8.1,30.1,6.7z"/></g><g><g><path class="st84" d="M25.5,21.5c-0.1,0-0.1,0-0.2,0L22,19.6l-3.3,1.8c-0.1,0.1-0.3,0.1-0.4,0c-0.1-0.1-0.2-0.2-0.1-0.4l0.6-3.9     l-2.7-2.7C16,14.4,16,14.2,16,14.1c0-0.1,0.2-0.2,0.3-0.3l3.7-0.6l1.7-3.5c0.1-0.1,0.2-0.2,0.3-0.2l0,0c0.1,0,0.3,0.1,0.3,0.2     l1.7,3.5l3.7,0.6c0.1,0,0.3,0.1,0.3,0.3c0,0.1,0,0.3-0.1,0.4l-2.7,2.7l0.6,3.9c0,0.1,0,0.3-0.1,0.4     C25.6,21.5,25.6,21.5,25.5,21.5z"/></g></g><path class="st85" d="M22.3,9.7c-0.1-0.1-0.2-0.2-0.3-0.2c-0.1,0-0.3,0.1-0.3,0.2L20,13.2l-3.3,0.5l-0.6,0.7c0,0,0,0,0,0.1l2.6,2.6   l4.7-5.2L22.3,9.7z"/><path class="st85" d="M25.2,17.2l2.7-2.7c0.1-0.1,0.1-0.3,0.1-0.4c0-0.1-0.2-0.2-0.3-0.3l-3.5-0.5l-5.7,6.3L18.2,21   c0,0.1,0,0.3,0.1,0.4c0.1,0.1,0.3,0.1,0.4,0l3.3-1.8l2.9,1.6l0.8-0.9L25.2,17.2z"/></g></svg>