<?xml version="1.0" ?><!DOCTYPE svg  PUBLIC '-//W3C//DTD SVG 1.1//EN'  'http://www.w3.org/Graphics/SVG/1.1/DTD/svg11.dtd'><svg enable-background="new 0 0 100 100" id="Layer_1" version="1.1" viewBox="0 0 100 100" xml:space="preserve" xmlns="http://www.w3.org/2000/svg" xmlns:xlink="http://www.w3.org/1999/xlink"><circle cx="49.9" cy="50" fill="#F5CD36" r="44.3"/><path d="M35.5,72.2l29.6,20.2c0,0,26.6-11.1,28.7-34.8L61.1,33.5L35.5,72.2z" fill="#E3B517"/><path d="M81,60.7c0.2,1,0.5,2.7,0.6,5.2c0,0.3,0.2,0.5,0.4,0.5c0.2,0.1,0.5-0.1,0.6-0.3c0.1-0.1,0.6-0.6,4.4-2.4  c0.1,2.8-3.1,7.1-9.1,9.1C77.6,71.4,77.8,64.7,81,60.7z" fill="#A3CB33"/><path d="M67.3,81.4c-0.3,0-0.7,0-1.1,0c0.2-1.6,1.8-9.3,9.3-12.8c-0.1,1.2-0.5,3.4-1.6,6.4c-0.1,0.2,0,0.5,0.2,0.7  c0.2,0.1,0.5,0.1,0.7,0c0.1-0.1,1-0.5,6.3-0.9c-1,2.7-4.6,6.7-11.9,6.7H67.3z" fill="#84AE27"/><path d="M65.7,76.8c-0.4,1.2-1.3,3.2-3,5.9c-0.1,0.2-0.1,0.5,0.1,0.7c0.2,0.2,0.4,0.2,0.7,0.1c0.1,0,1-0.2,6.3,0.6  c-1.6,2.1-6.9,5.1-14,3.4C56,85.5,57.3,79.7,65.7,76.8z" fill="#84AE27"/><path d="M81.2,43.2c0.8,0.6,2.3,1.1,3.7,2.8c0.2,0.2,0,0,0.3-0.1c0.3-0.1,0.4-0.5,0.3-0.8c0,0,0,0.1,1.6-3.4  c0.8,1.8,2,5.7-0.9,10.7C85,51.4,82.2,48.7,81.2,43.2z" fill="#D0DF6B"/><path d="M84.2,62.8c-0.8-1.1-3.2-4.7-1.8-10.9c0.6,0.8,1.4,2.1,2.2,4c0.1,0.2,0.4,0.4,0.6,0.3c0.3,0,0.4-0.3,0.5-0.5  c0,0,0.8-0.7,3.3-3.4C89.8,54.8,88.5,60.7,84.2,62.8z" fill="#A3CB33"/><path d="M84.6,42.3c-3.5-3.5-3-6.8-2.4-8.4c2.7,3.5,3.1,5.7,2.9,7C85,41.6,84.8,42,84.6,42.3z" fill="#D0DF6B"/><path d="M49.3,36.8c3,0.5,6.9,1.6,8.8,3.8c3,3.4,3.8,6.2,3.1,8.4c-0.2,0.7-0.6,1.2-1.1,1.5c0.7,0.9,1.8,2.9,1.5,5  c-0.2,1.3-0.9,2.4-2.1,3.3c0.5,0.4,1.2,1,1.4,1.9c0.3,1,0,2.2-0.8,3.4c-0.6,0.8-1.1,1.5-1.6,2c0.2,0.1,0.3,0.8,0.4,1  c0.9,1.4-0.2,4.5-1.3,6.1l2.7-0.5c1.5-0.6,2.8-1.5,3.8-2.7c3.6-4.3,2-10.2,2-10.3c-0.1-0.1-0.1-0.3,0-0.4  c3.8-11.5-1.7-19.4-4.6-23.7l-0.1-0.2c-1.1-1.7-1-4.7-1.4-8.4c-0.7-6-2-13.4-5.8-13c-1.9,0.2-3.7,1.4-4.5,2.6  c-1.8,2.7-0.5,8,0.8,12.2C51.3,31.4,50,34.9,49.3,36.8z" fill="#FCE7B6"/><path d="M61.1,55.3c0.3-1.9-1-3.8-1.5-4.4l0.1-1.1c0.5-0.2,0.9-0.5,1-1.1c0.4-1.4-0.3-4.2-3.5-7.9  c-1.8-2.1-4.8-3.1-7.8-3.5c0,0,0,0,0,0c-3.9-0.5-7.8,0.1-9.6,0.8c-2.9,1.1-2.6,6.1-2.6,6.1c0,0.1,0,0.3-0.1,0.4  c-5,5.9-2.3,10.5-2.2,10.5c0.1,0.2,0.1,0.4,0,0.6c-1.4,2-0.7,7.2-0.3,9c0,0.1,0,0.1,0,0.2c-0.4,2.2,0.3,4.6,1.9,6.6  c2.1,2.7,5.4,4.2,9,4.3c5.3,0.1,9.4-1.1,12.3-3.7c1.1-1,1.6-4.1,0.9-5.1c-0.1-0.1-0.2-0.3-0.7-0.1l1.9-3.6c0.6-0.9,0.8-1.7,0.6-2.4  c-0.3-0.9-1.2-1.5-1.5-1.6l-0.1-1.1C60.2,57.4,60.9,56.4,61.1,55.3z" fill="#FEF5E0"/><path d="M45.1,46.3c0,0,0.5-1.9,1.7-1.9s16.4,7,14.2,0.7c0,0,2,5.8-2.5,5.3C54,49.8,45.1,46.3,45.1,46.3z" fill="#F2D38F"/><path d="M43.9,56.5c0,0,0.5-1.8,1.2-1.8S60,58,61.6,55.4c0,0-0.7,3.4-5.7,3.5C51,59,43.9,56.5,43.9,56.5z" fill="#F2D38F"/><path d="M44,66.4c0,0,0.5-2.2,1.7-2.1c1.2,0.1,11,1,14.4-0.4c0,0-1.3,2-4.3,2.9C53,67.8,44,66.4,44,66.4z" fill="#F2D38F"/><path d="M35.2,70.4c0,0,5.7,3.7,10.3,3.2S55.4,73.4,59,67c0,0,1.4,4.4-2.2,6.6c-3.6,2.2-10.9,4.2-15.3,2.1  C37,73.7,35.2,70.4,35.2,70.4z" fill="#F2D38F"/><g><path d="M19.2,60.9c-0.2,1-0.5,2.7-0.6,5.2c0,0.3-0.2,0.5-0.4,0.5c-0.2,0.1-0.5-0.1-0.6-0.3   c-0.1-0.1-0.6-0.6-4.4-2.4c-0.1,2.8,3.1,7.1,9.1,9.1C22.6,71.7,22.4,64.9,19.2,60.9z" fill="#A3CB33"/><path d="M32.4,81.7c0.3,0,0.7,0,1.1,0c-0.2-1.6-1.8-9.3-9.3-12.8c0.1,1.2,0.5,3.4,1.6,6.4c0.1,0.2,0,0.5-0.2,0.7   c-0.2,0.1-0.5,0.1-0.7,0c-0.1-0.1-1-0.5-6.3-0.9c1,2.7,4.6,6.7,11.9,6.7H32.4z" fill="#84AE27"/><path d="M34,77c0.4,1.2,1.3,3.2,3,5.9c0.1,0.2,0.1,0.5-0.1,0.7c-0.2,0.2-0.4,0.2-0.7,0.1c-0.1,0-1-0.2-6.3,0.6   c1.6,2.1,6.9,5.1,14,3.4C43.6,85.7,42.3,80,34,77z" fill="#84AE27"/><path d="M35.5,22.6l0.8,2.9l0.8-2.9c0.1-0.2,0.2-0.4,0.4-0.4l2.9-0.8l-2.9-0.8c-0.2-0.1-0.4-0.2-0.4-0.4l-0.8-2.9   l-0.8,2.9c-0.1,0.2-0.2,0.4-0.4,0.4l-2.9,0.8l2.9,0.8C35.3,22.2,35.5,22.4,35.5,22.6z" fill="#FFFFFF"/><path d="M18.5,43.4c-0.8,0.6-2.3,1.1-3.7,2.8c-0.2,0.2,0,0-0.3-0.1c-0.3-0.1-0.4-0.5-0.3-0.8c0,0,0,0.1-1.6-3.4   c-0.8,1.8-2,5.7,0.9,10.7C14.7,51.6,17.5,49,18.5,43.4z" fill="#D0DF6B"/><path d="M30.7,32.9l0.4,1.4l0.4-1.4c0.1-0.2,0.3-0.4,0.5-0.5l1.4-0.4L32,31.7c-0.2-0.1-0.4-0.3-0.5-0.5l-0.4-1.4   l-0.4,1.4c-0.1,0.2-0.3,0.4-0.5,0.5L28.8,32l1.4,0.4C30.5,32.5,30.7,32.7,30.7,32.9z" fill="#FFFFFF"/><path d="M15.5,63c0.8-1.1,3.2-4.7,1.8-10.9c-0.6,0.8-1.4,2.1-2.2,4c-0.1,0.2-0.4,0.4-0.6,0.3   c-0.3,0-0.4-0.3-0.5-0.5c0,0-0.2-0.7-2.7-3.4C10.5,55.1,11.3,59.3,15.5,63z" fill="#A3CB33"/><path d="M70.5,30.5l0.4,1.4l0.4-1.4c0.1-0.2,0.3-0.4,0.5-0.5l1.4-0.4l-1.4-0.4c-0.2-0.1-0.4-0.3-0.5-0.5l-0.4-1.4   l-0.4,1.4c-0.1,0.2-0.3,0.4-0.5,0.5l-1.4,0.4L70,30C70.3,30.1,70.5,30.3,70.5,30.5z" fill="#FFFFFF"/><path d="M15,42.6c3.5-3.5,3-6.8,2.4-8.4c-2.7,3.5-3.1,5.7-2.9,7C14.6,41.8,14.8,42.3,15,42.6z" fill="#D0DF6B"/><path d="M31.4,82.2c0.6,0,1.1,0,1.7-0.1c0.3,0,0.5-0.3,0.5-0.6c0-0.3-0.1-7.4-9.1-13.8c-0.2-0.1-0.4-0.1-0.6,0   c-0.2,0.1-0.3,0.3-0.3,0.5c0,0.1-0.1,2.5,1.4,6.9c-1-0.2-3-0.5-6.8-0.7c-0.2,0-0.4,0.1-0.5,0.2s-0.1,0.4,0,0.6   C17.9,75.5,21.4,82.2,31.4,82.2C31.4,82.2,31.4,82.2,31.4,82.2z M19.4,75.6c5.3,0.4,6.2,0.8,6.3,0.9c0.2,0.2,0.5,0.2,0.7,0   c0.2-0.1,0.3-0.4,0.2-0.7c-1.1-3-1.5-5.2-1.6-6.4c6.2,4.8,7.4,10,7.6,11.6c-0.4,0-0.7,0-1.1,0c0,0,0,0,0,0   C24.1,81.1,20.6,77.4,19.4,75.6z" fill="#5B5A58"/><path d="M70.6,83.6c-3.7-0.6-5.7-0.8-6.7-0.8c2.4-4,2.9-6.3,2.9-6.4c0-0.2,0-0.4-0.2-0.5c-0.2-0.1-0.4-0.2-0.6-0.1   c-6.6,2.7-10.3,6.5-11.2,11.4c-1,0.7-2.6,1.5-5.1,1.5c-2.4,0-4-0.7-5-1.4c-0.3-2.1-2-7.8-10.9-11.5c-0.2-0.1-0.4,0-0.6,0.1   c-0.2,0.1-0.2,0.3-0.2,0.5c0,0.1,0.5,2.4,2.9,6.4c-1.1,0-3,0.2-6.7,0.8c-0.2,0-0.4,0.2-0.4,0.4c-0.1,0.2,0,0.4,0.1,0.6   c0.2,0.3,5.2,6.2,15.2,3.7c1.1,0.8,2.9,1.6,5.6,1.6c2.7,0,4.6-0.9,5.7-1.7c1.9,0.5,3.5,0.7,5,0.7c6.9,0,10.3-4.1,10.5-4.3   c0.1-0.2,0.2-0.4,0.1-0.6C70.9,83.8,70.8,83.7,70.6,83.6z M30.5,84.6c5.3-0.8,6.2-0.6,6.3-0.6c0.2,0.1,0.5,0.1,0.7-0.1   c0.2-0.2,0.2-0.5,0.1-0.7c-1.7-2.7-2.6-4.7-3-5.9c7.1,3.3,8.7,7.9,9.1,9.9C36.4,88.9,32.1,86,30.5,84.6z M55.9,87.1   c0.8-4.1,3.9-7.3,9.3-9.8c-0.4,1.1-1.3,3.2-3,5.9c-0.1,0.2-0.1,0.5,0.1,0.7c0.2,0.2,0.4,0.2,0.7,0.1c0.1-0.1,1.1-0.3,6.3,0.6   C67.6,86,63.2,88.9,55.9,87.1z" fill="#5B5A58"/><path d="M22.2,73.6c0.2,0,0.4-0.1,0.5-0.4c0.1-0.2,2.1-5.9-3-13.5c-0.1-0.2-0.3-0.3-0.5-0.2c-0.2,0-0.4,0.1-0.5,0.3   c0,0.1-0.8,1.9-1,5.6C17,65,15.5,64.2,12.8,63c-0.2-0.1-0.4-0.1-0.6,0.1c-0.2,0.1-0.3,0.3-0.2,0.5c0,0.3,0.8,7.3,10,10   C22.1,73.6,22.1,73.6,22.2,73.6z M13.4,64.5c3.8,1.8,4.4,2.3,4.4,2.4c0.1,0.2,0.4,0.3,0.6,0.3c0.2-0.1,0.4-0.3,0.4-0.5   c0-2.5,0.3-4.2,0.6-5.2c3.2,5.4,2.7,9.5,2.4,11C15.8,70.4,13.9,66.4,13.4,64.5z" fill="#5B5A58"/><path d="M15.2,63.7c0.1,0.1,0.2,0.1,0.4,0.1c0.1,0,0.3-0.1,0.4-0.2c0.2-0.2,3.9-4.2,2.3-12.3c0-0.2-0.2-0.4-0.4-0.4   c-0.2-0.1-0.4,0-0.6,0.1c-0.1,0.1-1.3,1.3-2.8,4.3c-0.5-0.7-1.4-1.8-3.2-3.7c-0.1-0.1-0.3-0.2-0.5-0.2c-0.2,0-0.4,0.2-0.4,0.4   C10.3,52,8.5,58.2,15.2,63.7z M11.3,53.2c2.5,2.8,2.7,3.4,2.7,3.4c0,0.3,0.2,0.5,0.5,0.5c0.3,0,0.5-0.1,0.6-0.3   c0.9-2,1.7-3.3,2.2-4c0.7,5.4-1.1,8.6-1.8,9.7C11.3,58.8,11.1,54.9,11.3,53.2z" fill="#5B5A58"/><path d="M13.6,53c0.1,0,0.2,0,0.3-0.1c0.2-0.1,4.5-2.5,5.4-10c0-0.2-0.1-0.4-0.2-0.5c-0.2-0.1-0.4-0.1-0.6,0   c-0.1,0-1.4,0.7-3.5,2.8c-0.2-0.8-0.7-2-1.7-4c-0.1-0.2-0.3-0.3-0.5-0.3c-0.2,0-0.4,0.1-0.5,0.2c-0.1,0.2-3.4,5,0.8,11.6   C13.2,52.9,13.4,53,13.6,53z M12.7,42.8c1.3,2.9,1.3,3.5,1.3,3.5c-0.1,0.3,0.1,0.5,0.3,0.6c0.2,0.1,0.5,0.1,0.7-0.1   c1.2-1.4,2.2-2.2,2.9-2.7c-0.9,4.6-3.2,6.8-4.2,7.6C11.3,47.5,12.1,44.3,12.7,42.8z" fill="#5B5A58"/><path d="M15,42.8c0.1,0.1,0.2,0.1,0.3,0.1c0.1,0,0.3,0,0.4-0.1c5-4.4,2.2-9,2.1-9c-0.1-0.2-0.3-0.2-0.4-0.3   c-0.2,0-0.4,0.1-0.5,0.2c-2.3,2.7-3.3,5.1-3.1,7C14,42.2,14.9,42.8,15,42.8z M17.2,35.1c0.4,1.2,0.9,3.8-1.9,6.5   c-0.2-0.2-0.3-0.6-0.4-1.1C14.8,39.5,15.1,37.8,17.2,35.1z" fill="#5B5A58"/><path d="M81.7,74.4c-3.7,0.2-5.7,0.5-6.8,0.7c1.5-4.4,1.4-6.8,1.4-6.9c0-0.2-0.1-0.4-0.3-0.5   c-0.2-0.1-0.4-0.1-0.6,0c-9,6.3-9.1,13.5-9.1,13.8c0,0.3,0.2,0.5,0.5,0.6c0.6,0,1.2,0.1,1.7,0.1c10.1,0,13.5-6.7,13.6-7   c0.1-0.2,0.1-0.4,0-0.6C82,74.5,81.9,74.4,81.7,74.4z M68.6,81.1c-0.3,0-0.7,0-1.1,0c0.2-1.6,1.3-6.8,7.6-11.6   c-0.1,1.2-0.5,3.4-1.6,6.4c-0.1,0.2,0,0.5,0.2,0.7c0.2,0.1,0.5,0.1,0.7,0c0.1-0.1,1-0.5,6.3-0.9C79.4,77.4,75.9,81.1,68.6,81.1z" fill="#5B5A58"/><path d="M87.7,63.1c-0.2-0.1-0.4-0.1-0.6-0.1c-2.7,1.2-4.1,2-4.9,2.5c-0.2-3.8-0.9-5.6-1-5.6   c-0.1-0.2-0.3-0.3-0.5-0.3c-0.2,0-0.4,0.1-0.5,0.2c-5.1,7.6-3.1,13.3-3,13.5c0.1,0.2,0.3,0.4,0.5,0.4c0.1,0,0.1,0,0.2,0   c9.2-2.7,10-9.7,10-10C88,63.4,87.9,63.2,87.7,63.1z M78.2,72.4c-0.3-1.4-0.9-5.6,2.4-11c0.2,1,0.5,2.7,0.6,5.2   c0,0.3,0.2,0.5,0.4,0.5c0.2,0.1,0.5,0,0.6-0.3c0.1-0.1,0.6-0.6,4.4-2.4C86,66.4,84.2,70.4,78.2,72.4z" fill="#5B5A58"/><path d="M85.5,55.3c-1.5-3-2.7-4.2-2.8-4.3c-0.1-0.1-0.4-0.2-0.6-0.1c-0.2,0.1-0.3,0.2-0.4,0.4   c-1.6,8.2,2.1,12.2,2.3,12.3c0.1,0.1,0.3,0.2,0.4,0.2c0.1,0,0.3,0,0.4-0.1c6.7-5.5,4.9-11.7,4.8-11.9c-0.1-0.2-0.2-0.3-0.4-0.4   c-0.2,0-0.4,0-0.5,0.2C86.9,53.4,86,54.6,85.5,55.3z M84.5,62.5c-0.8-1.1-2.6-4.3-1.8-9.7c0.6,0.8,1.4,2.1,2.2,4   c0.1,0.2,0.3,0.4,0.6,0.3c0.3,0,0.4-0.2,0.5-0.5c0-0.1,0.3-0.8,2.7-3.5C88.9,55,88.7,58.8,84.5,62.5z" fill="#5B5A58"/><path d="M86.1,52.9c0.1,0,0.2,0.1,0.3,0.1c0.2,0,0.4-0.1,0.5-0.3c4.2-6.6,0.9-11.4,0.8-11.6   c-0.1-0.2-0.3-0.3-0.5-0.2c-0.2,0-0.4,0.1-0.5,0.3c-0.9,2-1.4,3.2-1.7,4c-2.1-2.1-3.4-2.8-3.5-2.8c-0.2-0.1-0.4-0.1-0.6,0   c-0.2,0.1-0.3,0.3-0.2,0.5C81.7,50.4,86,52.8,86.1,52.9z M85,46.8c0.2,0.2,0.5,0.3,0.7,0.1c0.2-0.1,0.3-0.4,0.3-0.6   c0-0.1,0-0.7,1.3-3.6c0.6,1.5,1.4,4.8-1,8.9c-1-0.7-3.3-2.9-4.2-7.6C82.7,44.6,83.8,45.4,85,46.8z" fill="#5B5A58"/><path d="M84.3,42.8c0.1,0.1,0.2,0.1,0.4,0.1c0.1,0,0.2,0,0.3-0.1c0.1-0.1,0.9-0.7,1.1-2.1c0.3-1.9-0.8-4.3-3.1-7   c-0.1-0.1-0.3-0.2-0.5-0.2c-0.2,0-0.3,0.1-0.4,0.3C82.2,33.8,79.4,38.4,84.3,42.8z M82.8,35.1c2.1,2.7,2.4,4.4,2.3,5.4   c-0.1,0.5-0.2,0.8-0.4,1.1C82,38.9,82.4,36.3,82.8,35.1z" fill="#5B5A58"/><path d="M39.4,37c-3.3,1.2-3.4,5.9-3.3,7c-4.6,5.6-2.9,10.1-2.4,11.3c-1.5,2.8-0.5,8.5-0.3,9.4   c-0.4,2.5,0.3,5.2,2.1,7.4c2.3,2.9,5.9,4.6,9.8,4.7c0.2,0,0.5,0,0.7,0c4.1,0,7.4-0.8,10.1-2.4l4.5-1.4c1.7-0.7,3.2-1.7,4.2-3   c3.7-4.4,2.1-9.6,1.7-10.7c3.9-11.9-1.4-19.7-4.2-24l-0.1-0.2c-1-1.5-1.4-4.9-1.8-8.5c-0.7-6.5-1.5-13.9-6.4-13.4   c-2.2,0.2-3.8,1.1-4.8,2.5c-2.1,3.1-0.8,8.4,0.6,13.2c0.8,2.6-0.2,5.6-0.8,7.1C45.2,35.7,41.3,36.3,39.4,37z M50.2,16.5   c0.8-1.2,2.1-1.8,3.9-2c3.8-0.4,4.6,6.4,5.2,12.4c0.4,3.8,0.8,7.3,1.9,9l0.1,0.2c2.9,4.4,7.9,11.7,4.1,23.2c0,0.1,0,0.3,0,0.4   c0,0.1,2.2,5.4-1.4,9.7c-0.9,1.1-2.3,2.1-3.8,2.7l-1.6,0.5c1.2-1.5,1.6-4.7,0.8-6.1c-0.1-0.2-0.3-0.3-0.4-0.4c0.5-0.5,1-1.2,1.6-2   c0.8-1.2,1.1-2.3,0.8-3.4c-0.3-0.9-0.9-1.5-1.4-1.9c1.2-0.9,1.9-2,2.1-3.3c0.3-2.1-0.8-4-1.5-5c0.5-0.3,0.9-0.9,1.1-1.5   c0.6-2.2-0.7-5.5-3.7-9c-1.9-2.2-4.8-3.3-7.9-3.8c0.8-1.9,1.6-4.8,0.8-7.5C49.7,24.4,48.4,19.2,50.2,16.5z M49.4,37.2   c3,0.4,6,1.4,7.8,3.5c3.2,3.7,3.9,6.5,3.5,7.9c-0.2,0.6-0.5,0.9-1,1.1C58.5,50,53,48.6,45.8,46c-0.3-0.1-0.6,0-0.7,0.3   c-0.1,0.3,0,0.6,0.3,0.7c4.3,1.6,11.6,4.1,14.1,3.8c0.5,0.6,1.8,2.5,1.5,4.4c-0.2,1.1-0.9,2.1-2.2,2.9c-1.1,0.1-8.7,0.4-14.3-2   c-0.3-0.1-0.6,0-0.7,0.3c-0.1,0.3,0,0.6,0.3,0.7c4.2,1.8,9.4,2.1,12.4,2.1c1.2,0,2,0,2.4-0.1c0.3,0.2,1.2,0.7,1.5,1.6   c0.2,0.7,0,1.5-0.6,2.4c-2.2,3.2-3,3.2-8.6,3.4c-3.7,0.1-5.6-0.4-6.5-0.7c-0.3-0.1-0.6,0.1-0.7,0.4c-0.1,0.3,0.1,0.6,0.4,0.7   c1,0.3,2.9,0.7,5.9,0.7c0.3,0,0.6,0,0.9,0c3.4-0.1,5.3-0.1,6.7-0.9c0.5-0.2,0.6,0,0.7,0.1c0.6,1,0.2,4-0.9,5.1   c-2.8,2.5-6.9,3.8-12.3,3.7c-3.6-0.1-6.9-1.6-9-4.3c-1.6-2-2.3-4.4-1.9-6.6c0-0.1,0-0.1,0-0.2c-0.4-1.8-1-6.9,0.3-9   c0.1-0.2,0.1-0.4,0-0.6c0,0-2.7-4.7,2.2-10.5c0.1-0.1,0.1-0.3,0.1-0.4c0-0.1-0.3-5,2.6-6.1C41.6,37.3,45.5,36.8,49.4,37.2   C49.4,37.2,49.4,37.2,49.4,37.2z" fill="#5B5A58"/><path d="M50,5C25.2,5,5,25.2,5,50s20.2,45,45,45s45-20.2,45-45S74.8,5,50,5z M50,93.9C25.8,93.9,6.1,74.2,6.1,50   S25.8,6.1,50,6.1S93.9,25.8,93.9,50S74.2,93.9,50,93.9z" fill="#5B5A58"/><path d="M27,32.6l2.9,0.8l0.8,2.9c0.1,0.2,0.3,0.4,0.5,0.4c0.3,0,0.5-0.2,0.5-0.4l0.8-2.9l2.9-0.8   c0.2-0.1,0.4-0.3,0.4-0.5c0-0.3-0.2-0.5-0.4-0.5l-2.9-0.8l-0.8-2.9c-0.1-0.2-0.3-0.4-0.5-0.4c-0.3,0-0.5,0.2-0.5,0.4l-0.8,2.9   L27,31.5c-0.2,0.1-0.4,0.3-0.4,0.5C26.6,32.3,26.7,32.5,27,32.6z M30.4,31.7c0.2-0.1,0.3-0.2,0.4-0.4l0.3-1.2l0.3,1.2   c0.1,0.2,0.2,0.3,0.4,0.4L33,32l-1.2,0.3c-0.2,0.1-0.3,0.2-0.4,0.4l-0.3,1.2l-0.3-1.2c-0.1-0.2-0.2-0.3-0.4-0.4L29.3,32L30.4,31.7z   " fill="#5B5A58"/><path d="M66.7,30.2l2.9,0.8l0.8,2.9c0.1,0.2,0.3,0.4,0.5,0.4s0.5-0.2,0.5-0.4l0.8-2.9l2.9-0.8   c0.2-0.1,0.4-0.3,0.4-0.5c0-0.3-0.2-0.5-0.4-0.5l-2.9-0.8l-0.8-2.9c-0.1-0.2-0.3-0.4-0.5-0.4s-0.5,0.2-0.5,0.4l-0.8,2.9l-2.9,0.8   c-0.2,0.1-0.4,0.3-0.4,0.5C66.3,29.9,66.5,30.1,66.7,30.2z M70.2,29.3c0.2-0.1,0.3-0.2,0.4-0.4l0.3-1.2l0.3,1.2   c0.1,0.2,0.2,0.3,0.4,0.4l1.2,0.3l-1.2,0.3c-0.2,0.1-0.3,0.2-0.4,0.4l-0.3,1.2l-0.3-1.2c-0.1-0.2-0.2-0.3-0.4-0.4L69,29.6   L70.2,29.3z" fill="#5B5A58"/><path d="M30.4,21.9l4.3,1.1l1.1,4.3c0.1,0.2,0.3,0.4,0.5,0.4s0.5-0.2,0.5-0.4L38,23l4.3-1.1   c0.2-0.1,0.4-0.3,0.4-0.5c0-0.3-0.2-0.5-0.4-0.5L38,19.7l-1.1-4.3c-0.1-0.2-0.3-0.4-0.5-0.4s-0.5,0.2-0.5,0.4l-1.1,4.3l-4.3,1.1   c-0.2,0.1-0.4,0.3-0.4,0.5C30,21.6,30.1,21.8,30.4,21.9z M35.2,20.7c0.2-0.1,0.3-0.2,0.4-0.4l0.7-2.6l0.7,2.6   c0.1,0.2,0.2,0.3,0.4,0.4l2.6,0.7L37.4,22c-0.2,0.1-0.3,0.2-0.4,0.4L36.3,25l-0.7-2.6c-0.1-0.2-0.2-0.3-0.4-0.4l-2.6-0.7L35.2,20.7   z" fill="#5B5A58"/></g><path d="M55.4,16.5c0,0-4.1-1.1-4.3,2.4s0.5,5.8,3.4,6.1S57.6,17.7,55.4,16.5z" fill="#FEF5E0"/><g><path d="M36.6,10.7c-0.1-0.6-0.8-1-1.4-0.8c-2.2,0.8-7.5,3-13.9,8.3c-0.5,0.4-0.5,1.3,0,1.7l0.3,0.3   c0.4,0.3,1,0.3,1.4,0c1.8-1.5,6.8-5.6,12.9-8.1c0.5-0.2,0.8-0.7,0.7-1.2L36.6,10.7z" fill="#FCF5A9"/><path d="M47.7,7.3c-1.4,0-4.1,0.1-8.8,1.3c-0.6,0.1-0.9,0.7-0.8,1.3v0c0.1,0.6,0.7,0.9,1.3,0.8   c1.6-0.3,4.9-0.9,8.4-1.2c0.6,0,1-0.5,1-1.1V8.3C48.8,7.8,48.3,7.3,47.7,7.3z" fill="#FCF5A9"/></g></svg>