<?xml version="1.0" ?><!DOCTYPE svg  PUBLIC '-//W3C//DTD SVG 1.1//EN'  'http://www.w3.org/Graphics/SVG/1.1/DTD/svg11.dtd'><svg enable-background="new 0 0 230 230" height="230px" id="Слой_1" version="1.1" viewBox="0 0 230 230" width="230px" xml:space="preserve" xmlns="http://www.w3.org/2000/svg" xmlns:xlink="http://www.w3.org/1999/xlink"><linearGradient gradientUnits="userSpaceOnUse" id="SVGID_1_" x1="3.5756" x2="225.3557" y1="114.5772" y2="114.5772"><stop offset="0.0056" style="stop-color:#D57A59"/><stop offset="0.8344" style="stop-color:#E6B458"/><stop offset="1" style="stop-color:#EAC058"/></linearGradient><circle cx="114.466" cy="114.577" fill="url(#SVGID_1_)" r="110.89" stroke="#702500" stroke-miterlimit="10" stroke-width="4"/><linearGradient gradientUnits="userSpaceOnUse" id="SVGID_2_" x1="113.6908" x2="115.745" y1="9.2125" y2="226.6399"><stop offset="0.0056" style="stop-color:#F7A32F"/><stop offset="0.4928" style="stop-color:#FBCD69"/><stop offset="1" style="stop-color:#FFFCAA"/></linearGradient><ellipse cx="114.705" cy="116.505" fill="url(#SVGID_2_)" rx="109.273" ry="108.718"/><ellipse cx="80.095" cy="96.337" fill="#FFFFFF" rx="27.084" ry="27.608" stroke="#702500" stroke-miterlimit="10" stroke-width="4"/><circle cx="80.951" cy="97.433" fill="#2D6B05" r="14.915" stroke="#0C2300" stroke-miterlimit="10" stroke-width="2"/><circle cx="81.384" cy="97.217" fill="#020202" r="7.782"/><circle cx="78.033" cy="90.617" fill="#FFFFFF" r="5.296"/><ellipse cx="148.836" cy="93.461" fill="#FFFFFF" rx="27.084" ry="27.608" stroke="#702500" stroke-miterlimit="10" stroke-width="4"/><circle cx="149.692" cy="94.556" fill="#2D6B05" r="14.915" stroke="#0C2300" stroke-miterlimit="10" stroke-width="2"/><circle cx="150.124" cy="94.34" fill="#020202" r="7.782"/><circle cx="146.773" cy="87.74" fill="#FFFFFF" r="5.296"/><line fill="none" stroke="#702500" stroke-miterlimit="10" stroke-width="9" x1="76.443" x2="152.966" y1="170.952" y2="170.952"/><g><path d="M223.739,115.592c0,0-0.015,1.338-0.044,3.846c-0.015,0.627,0.003,1.328-0.042,2.097   c-0.048,0.77-0.1,1.611-0.157,2.519c-0.063,0.908-0.104,1.888-0.197,2.928c-0.121,1.037-0.251,2.139-0.387,3.303   c-0.068,0.582-0.138,1.181-0.21,1.794c-0.101,0.609-0.205,1.233-0.311,1.872c-0.225,1.276-0.421,2.62-0.697,4.007   c-0.305,1.381-0.623,2.819-0.953,4.311c-0.347,1.488-0.806,3.004-1.226,4.585c-1.817,6.282-4.447,13.229-8.232,20.359   c-3.764,7.135-8.74,14.398-14.855,21.348c-3.103,3.43-6.428,6.848-10.134,10.001c-1.798,1.641-3.77,3.114-5.716,4.656   c-0.995,0.741-2.024,1.448-3.042,2.179l-1.537,1.089l-1.593,1.021c-8.461,5.534-18.019,10.016-28.187,13.093   c-5.078,1.57-10.335,2.653-15.642,3.498c-5.321,0.793-10.717,1.131-16.114,1.212c-5.364-0.075-10.798-0.418-16.114-1.21   c-5.307-0.845-10.564-1.928-15.642-3.498c-10.168-3.077-19.725-7.56-28.187-13.094l-1.593-1.021l-1.537-1.089   c-1.018-0.731-2.046-1.438-3.042-2.179c-1.945-1.542-3.921-3.011-5.717-4.654c-3.706-3.153-7.03-6.572-10.133-10.002   c-6.115-6.95-11.091-14.214-14.855-21.349c-3.784-7.13-6.417-14.077-8.232-20.359c-0.42-1.581-0.88-3.097-1.226-4.585   c-0.33-1.491-0.647-2.929-0.952-4.311c-0.276-1.387-0.472-2.731-0.697-4.007c-0.106-0.639-0.21-1.263-0.31-1.872   c-0.072-0.613-0.142-1.211-0.21-1.794c-0.136-1.164-0.265-2.266-0.387-3.303c-0.093-1.04-0.134-2.018-0.197-2.926   c-0.057-0.908-0.109-1.749-0.157-2.518c-0.044-0.77-0.026-1.472-0.041-2.099c-0.028-2.508-0.043-3.846-0.043-3.846   s0.053,1.337,0.152,3.843c0.033,0.626,0.035,1.326,0.1,2.094c0.07,0.767,0.145,1.604,0.227,2.509   c0.087,0.904,0.158,1.878,0.276,2.911c0.143,1.031,0.294,2.127,0.455,3.284c0.08,0.579,0.162,1.173,0.247,1.782   c0.113,0.604,0.23,1.224,0.349,1.858c0.25,1.266,0.474,2.598,0.777,3.972c0.332,1.367,0.678,2.79,1.037,4.266   c0.376,1.471,0.864,2.968,1.314,4.529c1.941,6.199,4.696,13.022,8.509,20.039c3.815,7.013,8.828,14.128,14.949,20.908   c3.106,3.345,6.426,6.673,10.117,9.732c1.794,1.59,3.753,3.019,5.669,4.535c0.983,0.726,1.999,1.417,3.004,2.132l1.517,1.066   l1.572,0.998c8.351,5.412,17.772,9.78,27.779,12.762c4.998,1.523,10.17,2.563,15.387,3.373c5.236,0.758,10.501,1.062,15.835,1.127   c5.302-0.058,10.605-0.367,15.836-1.124c5.217-0.81,10.389-1.85,15.387-3.373c10.008-2.983,19.428-7.351,27.779-12.763l1.572-0.998   l1.517-1.066c1.005-0.715,2.021-1.406,3.004-2.132c1.916-1.517,3.878-2.941,5.671-4.534c3.692-3.059,7.011-6.388,10.117-9.733   c6.121-6.78,11.133-13.895,14.948-20.909c3.813-7.017,6.57-13.84,8.509-20.039c0.449-1.561,0.938-3.058,1.314-4.529   c0.359-1.476,0.705-2.899,1.037-4.266c0.303-1.374,0.527-2.706,0.777-3.972c0.119-0.634,0.235-1.254,0.349-1.858   c0.084-0.609,0.166-1.203,0.247-1.782c0.16-1.158,0.312-2.253,0.454-3.284c0.118-1.033,0.189-2.006,0.276-2.91   c0.082-0.905,0.158-1.742,0.227-2.509c0.066-0.768,0.068-1.469,0.1-2.095C223.686,116.929,223.739,115.592,223.739,115.592z" fill="#DA4300"/></g></svg>