<?xml version="1.0" ?><svg enable-background="new 0 0 262.6 230.2" version="1.1" viewBox="0 0 262.6 230.2" xml:space="preserve" xmlns="http://www.w3.org/2000/svg" xmlns:xlink="http://www.w3.org/1999/xlink"><g id="Layer_6"><g id="XMLID_13_"><g><path d="M262.4,171.6c0.1,20.4-13.5,37.5-31.5,44.9c-21.1,8.6-43.9,6.2-66.1,6c-32.4-0.3-64.4,10.9-96.9,6.3     c-20.2-2.8-43.7-10.1-57.5-26.5c-7.3-8.7-11.2-19.2-9.9-30.8c1.1-9.6,7.1-21.9,14.7-27.9c-4.4-8.8-3.4-19.4,0.4-29.3     c5.3-13.6,21.8-18.2,34.6-21.2c-7.7-8.3-10-21.8-2.5-31.3c4.5-5.8,11-9.2,17.9-11c6.3-1.7,12.3-3.1,18.6-3.7l0.5,2.6     c-5,0.9-10,2.4-14.8,3.8c-6,1.7-12.3,3.6-16.9,8.2c-4.8,4.9-7.1,11.6-5.4,18.5C49.3,87,54,91.5,58.1,97c0.6,0.8-0.5,1.7-1.2,1.3     c-1.3-0.7-2.6-1.5-3.8-2.5c-11.5,3-28,6.6-33.5,18.8c-2.6,5.6-3.9,12.8-3.6,19c0.3,6.7,3.4,12,7.4,17.1c0.8,1-0.4,2.1-1.3,1.4     c-1.9-1.6-3.5-3.3-4.8-5.1c-3.8,3.3-6.5,8.5-8.7,13c-3.6,7.2-5.5,15.3-3.5,23.3c2.8,11.2,10.5,19.9,19.9,26     c21.7,14,48.5,18,73.7,15.8c16.8-1.5,33.3-4.9,50-6.2c13.1-1,26.1,0.1,39.2,0c22.3,0,49.4-2.6,63.1-23.4     c9.1-13.8,9.3-30.1,2.4-45.1c-3.5-7.6-7.9-13.7-15-18.2c-3.9-2.5-8-4.7-12-7l1.3-2.3c8.7,4.2,17.4,8.1,23.7,16.2     C258.2,147.7,262.3,160.5,262.4,171.6z"/><path d="M253.5,150.4c6.9,15,6.7,31.3-2.4,45.1c-13.8,20.8-40.8,23.4-63.1,23.4c-13.1,0-26.1-1.1-39.2,0     c-16.8,1.3-33.3,4.7-50,6.2c-25.2,2.3-52-1.8-73.7-15.8c-9.4-6.1-17.1-14.8-19.9-26c-2-8-0.1-16.1,3.5-23.3     c2.2-4.5,4.9-9.7,8.7-13c1.3,1.8,2.9,3.5,4.8,5.1c0.9,0.8,2.1-0.4,1.3-1.4c-4-5.2-7-10.4-7.4-17.1c-0.3-6.2,1-13.3,3.6-19     c5.6-12.2,22-15.8,33.5-18.8c1.2,0.9,2.4,1.8,3.8,2.5c0.7,0.4,1.8-0.5,1.2-1.3c-4-5.5-8.7-9.9-10.4-16.8     c-1.7-6.9,0.6-13.6,5.4-18.5C57.6,57,64,55.2,70,53.4c4.8-1.4,9.8-2.9,14.8-3.8c2.7-0.4,5.4-0.7,8-0.6c1.4,0,1.4-2.2,0-2.2     c-1.9-0.1-3.7,0-5.5,0c-6-8.9-2.2-18,4.5-25.7c7-8.1,17.1-11.7,27.3-13.6c10.5-1.9,20-0.4,30.3,1c2.6,0.3,7.4,0,10.2-1.9     c-0.1,0.2-0.2,0.5-0.3,0.7c-1.6,3.3-4.8,5.5-7.6,8.7c-1.6,1.9-2.8,4-2.7,6.5c0.2,4.6,5.6,7.9,9,9.8c6,3.5,12.5,5.8,18.6,9     c3.2,1.7,5.4,3.5,7.6,6.5c4.8,6.6,3.5,13,2.3,20.5c-0.1,0.9,0.9,1.8,1.6,1c0.7-0.8,1.2-1.7,1.7-2.6c0,0,0.1,0,0.1,0     c0.4,0,0.7-0.1,1.1-0.1c15.3-1.1,31.6,5.7,40,19.2c4.2,6.8,4.1,15.8,0.5,22.8c-3.1,5.9-9.2,8.7-13.7,13.2c-0.6,0.6,0,1.6,0.8,1.4     c1-0.3,1.9-0.6,2.8-1c0,0,0.1,0.1,0.1,0.1c1.7,0.9,3.3,1.8,5,2.8c4.1,2.2,8.1,4.5,12,7C245.6,136.6,250,142.8,253.5,150.4z" fill="#754823"/><path d="M235.8,86.6c6.2,12.9-0.1,28-11.7,34.4c1.2,0.6,2.5,1.2,3.7,1.8l-1.3,2.3c-1.7-0.9-3.3-1.8-5-2.8c-0.1,0-0.1-0.1-0.1-0.1     c-0.9,0.4-1.8,0.7-2.8,1c-0.8,0.2-1.4-0.8-0.8-1.4c4.5-4.5,10.6-7.3,13.7-13.2c3.6-7,3.8-16-0.5-22.8     c-8.4-13.5-24.7-20.3-40-19.2l-0.1-3C208.4,61.8,227.7,69.9,235.8,86.6z"/><path d="M186.2,44.5c3.9,5.4,6.4,12.7,4.7,19.1l0.1,3c-0.4,0-0.7,0-1.1,0.1c0,0-0.1,0-0.1,0c-0.5,0.9-1,1.8-1.7,2.6     c-0.7,0.9-1.8-0.1-1.6-1c1.2-7.5,2.5-13.9-2.3-20.5c-2.2-3-4.4-4.8-7.6-6.5c-6.1-3.2-12.6-5.5-18.6-9c-3.4-2-8.8-5.2-9-9.8     c-0.1-2.5,1.1-4.7,2.7-6.5c2.8-3.2,6-5.5,7.6-8.7l2,0.5c-0.3,0.8-0.9,1.7-1.7,2.7c-2.3,2.9-9.7,9-6.9,13.1     c3.7,5.5,12,8.1,17.7,10.7C175.9,36.9,182.4,39.2,186.2,44.5z"/><path d="M161.4,1.2c0.3,0.9,0.3,1.8,0.2,2.5c0.2,1.6,0.2,2.8-0.3,4.1l-2-0.5c0.1-0.2,0.2-0.4,0.3-0.7c-2.8,1.9-7.6,2.2-10.2,1.9     c-10.3-1.4-19.8-3-30.3-1C108.8,9.4,98.7,13,91.7,21.1c-6.6,7.7-10.4,16.8-4.5,25.7c1.8-0.1,3.6-0.1,5.5,0c1.4,0.1,1.4,2.3,0,2.2     c-2.6-0.1-5.3,0.2-8,0.6L84.3,47c-11.1-10.8,3.4-30.4,14-36.3c9.9-5.5,21.4-7.9,32.6-7.8c4.6,0,9.5,0.2,14,1.4     c2,0.6,4,1.2,6.1,1.5c2.6,0.4,9.8,0.3,9-4.3c0-0.3,0-0.5,0.2-0.7c0,0,0,0,0-0.1c-0.1-0.6,0.9-0.9,1-0.3c0,0.1,0,0.1,0,0.1     C161.2,0.9,161.3,1,161.4,1.2z"/></g><g/></g></g><g id="Layer_12"><path d="M83.8,75.1c1.6-0.1,2.7,0.7,3.1,2.3c0.2,0.7-0.1,1.5-0.2,2.2c-0.1,0.7-0.1,1.5-0.2,2.3   c-0.1,0.5-0.1,1.1-0.3,1.6c0.1-0.5,0.1-0.3-0.1,0.4c0.1-0.4,0-0.3-0.1,0.4c-0.5,1.2-1.8,1.8-3.1,1.3c-0.4-0.2-0.7-0.4-1-0.7   c0.4,0.3,0.3,0.2-0.3-0.3c-0.4-0.6-0.4-0.8-0.2-0.4c-0.2-0.3-0.4-0.6-0.5-0.9c-0.4-1-0.5-2.1-0.5-3.2   C80.4,78.1,81.6,75.3,83.8,75.1z" fill="#90663B" opacity="0.52"/><path d="M81.7,205.8c-0.1-2-1.3-3.9-2.4-5.5c-0.4-0.6-0.9-1.2-1.4-1.8c-0.1-0.1-0.2-0.3-0.3-0.4   c0.4,0.6,0.2,0.3-0.6-0.8c-0.9-1.1-2-2-3.1-2.8c-3.3-2.4-7.6,1.6-6.6,5.1c0.7,2.5,2.3,5,4.2,6.7c1.1,1,2.7,1.8,3.6,2.2   c0.7,0.3,1.2,0.6,1.9,0.7c0.8,0.2,1.6-0.1,2.4,0C81.2,209.4,82,207.3,81.7,205.8z" fill="#90663B" opacity="0.52"/></g><g id="Layer_11"><path d="M230.6,154.5c-2.4-0.5-4.6,0.3-5.9,2.4c-1.9,2.9-1.1,6.7-2.1,9.9c-1.2,4.1-1.8,7.6-0.6,11.7   c0.7,2.3,3.3,3.3,5.4,2.2c2.3-1.2,3.9-2.1,5.5-4.4c1.5-2.2,2.8-4.4,3.5-7C238.1,164.1,237.1,155.8,230.6,154.5z" fill="#74431F"/><path d="M209.1,94.4c-2.4-0.5-4.6,0.3-5.9,2.4c-1.9,2.9-1.1,6.7-2.1,9.9c-1.2,4.1-1.8,7.6-0.6,11.7   c0.7,2.3,3.3,3.3,5.4,2.2c2.3-1.2,3.9-2.1,5.5-4.4c1.5-2.2,2.8-4.4,3.5-7C216.6,104,215.6,95.7,209.1,94.4z" fill="#74431F"/><path d="M77.4,64.5c1.5,0.3,2.6,1.3,3,2.8c0.4,2.2-0.9,4.2-1.1,6.4c-0.2,2.8-0.7,4.9-2.4,7.1c-1,1.2-2.7,1.2-3.7,0   c-1.1-1.3-1.9-2.2-2.3-3.9c-0.4-1.7-0.6-3.3-0.5-5C70.7,68.5,73.3,63.7,77.4,64.5z" fill="#74431F"/><path d="M82.6,185.1c-0.5-0.7-1.2-1.2-1.9-1.7c-0.2-0.1-1.8-0.9-1.4-0.5c-0.8-0.7-1.6-1.1-2.5-1.7   c0.6,0.4-0.6-0.6-0.7-0.8c-1.2-1.5-2.7-2.7-4.8-2.6c-2.8,0.1-4.9,2.7-4.2,5.5c0.1,0.2,0.3,1,0.4,1.3c0,0.2,0.1,0.5,0.1,0.8   c0.1,0.6,0.3,1.2,0.6,1.7c0.9,1.7,2.4,3.1,4.1,4c2.8,1.6,8.5,2.1,10.9-1.4C84.3,188,83.7,186.5,82.6,185.1z" fill="#74431F"/></g><g id="Layer_10"><path d="M260.1,169.8c-0.2-2.9-0.1-6.3-0.7-9.2c0.3,4.6-0.3,9.3-1.6,13.8c-2.2,4.6-4.6,9-8.1,13.1   c-6.7,7.9-15.6,13.8-25.1,17.6c-10.1,4-20.9,5.6-31.7,5.5c-6.7-0.1-13.5-0.8-20.2-1c-8.3-0.2-16.5,0.1-24.8,0.5   c-15.8,0.8-31.5,2.5-47.2,3.3c-13.1,0.7-27.2,1.5-40.2-1.2c-17.7-3.7-37.3-14.1-47.1-29.8c-4-6.5-6-14.4-4.1-21.7   c0.2-2.4,0.7-4.7,1.6-6.9c-0.4-0.7-1-1.1-1.7-1.3c-6.4,9.3-10.5,23.9-6,35c3,6.1,7.6,11.6,12.5,16.1c14.9,13.7,34.8,22,54.9,23.6   c31.6,2.6,63.1-3.7,94.6-4.7c13.3-0.4,26.6,1.4,39.8-0.1c6.3-0.8,12.5-2.2,18.4-4.3c0.7-0.8,1.6-1.5,2.8-2   c12.7-4.7,25.4-12.5,31.1-25.2C260,184.2,260.7,176.8,260.1,169.8z" fill="#633515"/><path d="M42.6,101.1c-9.5-0.6-17.6,7.8-21.1,15.8c-4.1,9.5-2.5,19.1,4.1,26.7c1.1,1.3,2.9-0.3,2.2-1.7   c-3.4-7-3.8-15.7-1.3-22.9c2.9-8.3,9.1-12.7,16.4-16.9C43.4,101.8,43.2,101.1,42.6,101.1z" fill="#915F3E"/><path d="M53.9,168.6c-5.8-1.5-11.6-2.9-17.3-4.5c-6-1.7-10.7-5.4-16.3-7.8c-1.2-0.5-3,0.7-2,2   c8.2,11.2,22.9,11.3,35.3,12.3C54.8,170.7,55,168.9,53.9,168.6z" fill="#915F3E"/><path d="M57.7,63.2c0.1-0.8-0.5-1.6-1.4-1.4c-4.1,1.1-6,6.3-6.5,10.1c-0.7,5.6,0.7,10.1,4.7,14   c1.2,1.2,3.2-0.3,2.3-1.8c-1.8-3.2-2.2-7.5-2.1-11.1C55,69.5,57.1,66.6,57.7,63.2z" fill="#915F3E"/><path d="M204.6,69.8c-0.1,0-0.2,0.2-0.1,0.3c5.6,3.8,11.2,6.5,15.6,11.7c4.5,5.4,5.8,12.4,8,18.9   c0.5,1.3,2.5,1.5,2.9,0C235,85.6,219.6,69.5,204.6,69.8z" fill="#915F3E"/><path d="M182.6,50.2c-1.2-2.9-3.7-6.7-7.4-6c-1,0.2-1.1,1.4-0.6,2.1c3.6,4.4,5.9,9.7,6.9,15.3c0.2,1.2,2,1.1,2.3,0   C184.8,57.5,184.2,54,182.6,50.2z" fill="#915F3E"/><path d="M248.8,147c-0.4-0.8-8.5-12.2-9.7-9.5c-1.5,3.3,3.5,9.4,5.1,12.2c3.6,6.4,7.3,13.6,8.5,20.9   c0.2,1.5,2.5,1.1,2.6-0.3C255.7,161.8,253,154.3,248.8,147z" fill="#915F3E"/><path d="M131.3,10.7c-4.9-0.4-9.5-1.2-14.4-0.6c-5,0.6-9.6,2.1-14.2,4.1c-7.6,3.5-16.1,11.3-15.8,20.4   c0,0,0,0,0.1,0c3.3-1.5,4.8-4.7,7.2-7.2c3.3-3.5,7-6.2,11.3-8.4c7.6-3.8,17.4-5.8,25.8-6.5C132.5,12.4,132.5,10.8,131.3,10.7z" fill="#915F3E"/></g><g id="Layer_6_copy"><path d="M251.5,139c-7.1-9.2-17.5-12.9-27.4-18c11.6-6.4,17.9-21.5,11.7-34.4c-8.1-16.7-27.4-24.9-44.9-23   c1.7-6.5-0.9-13.7-4.7-19.1c-3.8-5.3-10.3-7.7-15.9-10.2c-5.7-2.6-13.9-5.2-17.7-10.7c-2.8-4.1,4.6-10.2,6.9-13.1   c2.2-2.8,2.4-4.3,2-6.8c0.1-0.7,0.1-1.5-0.2-2.5c-0.1-0.2-0.2-0.3-0.3-0.4c0,0,0-0.1,0-0.1c-0.1-0.7-1.1-0.4-1,0.3c0,0,0,0,0,0.1   c-0.1,0.2-0.2,0.4-0.2,0.7c0.8,4.6-6.5,4.7-9,4.3c-2.1-0.3-4.1-1-6.1-1.5c-4.5-1.2-9.3-1.4-14-1.4c-11.2-0.1-22.7,2.4-32.6,7.8   c-10.6,5.8-25.1,25.4-14,36.3c-6.3,0.6-12.3,2.1-18.6,3.7c-6.9,1.8-13.3,5.2-17.9,11c-7.5,9.5-5.2,23,2.5,31.3   c-12.8,2.9-29.3,7.5-34.6,21.2c-3.8,9.9-4.8,20.6-0.4,29.3c-7.6,6-13.6,18.4-14.7,27.9c-1.3,11.6,2.6,22.1,10,30.8   c13.8,16.4,37.3,23.6,57.5,26.5c32.5,4.6,64.4-6.7,96.9-6.3c22.2,0.2,44.9,2.6,66-6c18.1-7.4,31.7-24.5,31.5-44.9   C262.3,160.5,258.2,147.7,251.5,139z M187.9,218.9c-13.1,0-26.1-1.1-39.2,0c-16.8,1.3-33.3,4.7-50,6.2c-25.2,2.3-52-1.8-73.7-15.8   c-9.4-6.1-17.1-14.8-19.9-26c-2-8-0.1-16.1,3.5-23.3c2.2-4.5,4.9-9.7,8.7-13c1.3,1.8,2.9,3.5,4.8,5.1c0.9,0.8,2.1-0.4,1.3-1.4   c-4-5.2-7.1-10.4-7.4-17.1c-0.3-6.2,1-13.3,3.6-19c5.6-12.3,22-15.8,33.5-18.8c1.2,0.9,2.4,1.8,3.8,2.5c0.7,0.4,1.8-0.5,1.2-1.3   c-4-5.5-8.7-9.9-10.4-16.8c-1.7-6.9,0.6-13.6,5.4-18.5C57.6,57,64,55.2,70,53.4c7.3-2.1,15.2-4.6,22.8-4.4c1.4,0,1.4-2.2,0-2.2   c-1.9-0.1-3.7-0.1-5.5,0c-6-8.9-2.2-18,4.5-25.7c7-8.1,17.1-11.7,27.3-13.6c10.5-1.9,20-0.4,30.3,1c2.6,0.4,7.4,0,10.2-1.9   c-1.5,3.6-4.9,6-7.9,9.4c-1.6,1.9-2.8,4-2.7,6.5c0.2,4.7,5.6,7.9,9,9.8c6,3.5,12.5,5.8,18.6,9c3.2,1.7,5.5,3.5,7.6,6.5   c4.8,6.6,3.5,13,2.3,20.5c-0.1,0.9,0.9,1.8,1.6,1c0.7-0.8,1.2-1.7,1.7-2.6c0,0,0.1,0,0.1,0c15.6-1.5,32.5,5.3,41.1,19.1   c4.2,6.8,4.1,15.8,0.5,22.8c-3.1,5.9-9.2,8.7-13.7,13.2c-0.6,0.6,0,1.6,0.8,1.4c1-0.3,1.9-0.6,2.8-1c0,0,0.1,0.1,0.2,0.1   c5.7,3.2,11.5,6.2,17,9.7c7.1,4.5,11.5,10.6,15,18.2c6.9,15,6.7,31.3-2.4,45.1C237.3,216.2,210.3,218.9,187.9,218.9z"/></g><g id="smily_color"><path d="M216.7,113.5c-0.1-0.8-0.4-1.5-0.8-2c0.2-0.9,0.5-1.7,0.6-2.1c0.9-3.1-2.7-6.2-5.6-4.3   c-0.2,0.1-0.3,0.2-0.4,0.3c-0.8,0-1.6-0.1-2.2-0.1c-3.2-0.4-6.4-0.3-9.6-0.4c-4.9-0.3-9.9-1.7-14.7-2.4c-6.1-0.9-12-0.8-18.1-0.1   c-5,0.6-9.9,1.2-14.9,1.5c-4,0.3-7.3,1.9-10.4,4.4c-1.7,1.4-2.8,3.1-3.6,5c-1.9-0.2-3.9-0.1-5.8,0.1c-0.7,0.1-0.9,0.2-0.9,0.3   c0,0,0.1-0.3-0.3-1c-0.8-1.5-2-2.8-3.1-4.1c-2.6-2.9-5.7-4.3-9.5-4.8c-8.3-1-17.1-1-25.4-0.9c-2.8,0-5.5,0.2-8.3,0.5   c0.3-0.4-0.1-1.2-0.7-1.2c-4.3-0.5-10.9,0-15.1,2.7c-3.8,0.3-7.8,0.6-11.6,0c-3-0.5-5.4,1.2-5.6,4.3c-0.1,1.2,0.1,2.3,0.3,3.5   c-0.5,1-0.8,2.2-1.1,3.1c-0.5,1.5-0.9,3.7,0.1,5.1c0.2,0.2,0.4,0.4,0.7,0.4c0.5,1.6,2,3,3.7,3.5c0,0.1,0,0.2,0,0.3   c0.9,0.4,1.8,1.5,1.6,2.5c-0.1,0.8-0.2,1.5-0.3,2.3c0,0.1-0.1,0.7-0.1,0.7c0,0.1,0,0.3,0,0.4c0.8,2.8,1.6,5.5,2,7.8   c1.3,9.1,7,16.2,15,20.4c8.4,4.4,18.2,5.6,27.4,3.8c4.5-0.8,8.7-2.9,12.4-5.6c0.9-0.7,1.8-1.4,2.5-2.1c0.1,0.1,0.2,0.1,0.3,0.1   c0.4,0,0.7-0.2,1.1-0.5c3-1.7,5-5,6.7-8.2c0.5-0.7,1.1-1.4,1.6-2.1c0.1-0.2,0.1-0.3-0.1-0.4c0.4-0.6,0.8-1.2,1.1-1.9   c3.9-5.1,4.7-13.3,4.7-19.8c0.7,0,1.4-0.1,2.2-0.2c0.8-0.1,2.1-0.5,3.4-0.8c0.1,4.9,1.4,10.1,2.5,14c6,20.7,29.1,33.3,50,27.5   c8.3-2.3,17-10.8,20.2-18.7c1.8-4.5,2.1-9.8,2.5-14.6c0.1-1.3,0.2-2.7,0.2-4.1c0.1,0,0.3,0,0.4-0.1c1.6-0.3,2.7-1,3.5-2   c0.3,0,0.7-0.3,0.8-0.6c0.1-0.4,0.2-0.8,0.3-1.2C217.1,119.3,216.9,116.1,216.7,113.5z M92.1,158.4c-8.8-0.4-19.1-3.2-24.4-10.8   c-5.2-7.4-5.2-16-5.4-24.7c-0.1-3.8-0.1-7.1,2.5-10.1c2.8-3.3,9.5-3.3,13.4-3.7c4.7-0.5,9.3-0.8,14-1.2c0.1,0,0.2,0,0.3,0   c9.7-0.7,32.7-4,33.2,11.1C126.3,137.8,112.7,159.5,92.1,158.4z M198.7,150.1c-13.9,12.2-35.9,10.8-47.1-4.1   c-5.7-7.6-9.3-16.6-9.2-26.3c0-3.3,0.7-6.3,3.8-7.9c0.1-0.1,0.2-0.1,0.4-0.2c1-0.8,2.3-1.5,3.9-2c5.4-1.5,10.5-1.8,15.9-1.5   c2.2-0.6,4.5-1,6.8-1.1c5.7-0.1,11.5,1,17.2,1.7c8.8,1.1,16,3.6,15.8,13.6C205.9,132.8,207.3,142.5,198.7,150.1z" fill="#3E3E3E"/><path d="M205,117.2c-0.5-2.9-2.4-5.1-4.9-6.8c-0.2-0.1-0.3-0.1-0.5-0.2c-1.6,0.5-3.3,0.5-4.9-0.2   c-1.5-0.6-3.1-1-4.6-1.4c-1.3,0.2-2.6,0.1-3.9-0.2c-1.5-0.4-3-0.8-4.6-1c-0.5,0-1.8-0.2-2.2-0.2c-0.1,0-0.2,0-0.2,0   c-0.7,0.2-1.4,0.2-2.1,0.2c-0.4,0.1-0.8,0.2-1.2,0.4c-2.3-0.3-5.8-0.5-8.2,0.5c-4.1-0.3-8.3,0-12.5,0c-0.5,0-0.8,0.2-1,0.5   c-3.7-0.1-7.6,0.5-10.1,3c-1.8,1.8-2.4,3.4-2.5,5.9c0,0.6,0.1,1.2,0.2,1.9c-0.4,0.5-0.7,1.2-0.6,2.1c0.3,2.7,0.3,5.3,1.1,8   c0.1,0.4,0.3,0.7,0.5,1c2.4,9.2,7.2,17.3,15.8,22.9c10.8,7,27.8,6.7,37.9-1.6c1.8-1.4,3.5-2.9,4.4-5c0.5-1.3,0.7-2.8,1.4-4.1   c0.7-1.3,1.9-2.4,2.2-3.9C205.8,132.1,206.3,124.4,205,117.2z" fill="#201C1D"/><path d="M124,123c2.3-3.8,1.6-9.6-2.9-11.7c-1.4-0.6-2.8-1-4.2-1.3c-0.3-0.3-0.7-0.7-1.1-0.9c-1.3-0.7-2.7-1-4.2-1   c-1.7-1-3.8-1.5-5.9-1.4c-1.6,0.1-3.5,0.7-4.9,1.7c-1-0.1-2-0.1-3-0.1c-7.5-0.1-15.4-0.1-22.9,0.6c-2.4,0.2-4.8,0.7-7,1.7   c-4,0.6-6.1,5.6-6.7,9.4c-0.6,1.7-0.3,3.1,0.4,4.1c0,0.1,0,0.1-0.1,0.2c-0.3,1.4-0.3,2.8,0,4.2c-0.7,1.5-1,3.2-0.6,5.4   c0.3,2.1,0.9,4.1,1.7,6c0,0.1,0,0.3,0,0.4c0.8,5.2,6.3,9.7,10.5,12.3c7.3,4.3,14.9,5.7,23.3,4.8c14.5-1.5,25.8-14.5,27.3-28.8   c0.1-1.3,0.1-2.3-0.1-3C124.1,124.9,124.1,123.9,124,123z" fill="#201C1D"/><path d="M183.8,147.7c-9.7-9.8-19.5-19.6-29.4-29.2c0,0,0,0,0,0c9.6,10,19.4,19.7,29.3,29.3   C183.8,148,183.9,147.8,183.8,147.7z" fill="#B9BBBD"/><path d="M191.7,145.4c-10.9-11.1-21.9-22.2-33.1-33.1c0,0,0,0,0,0c10.7,11.3,21.8,22.3,33,33.2   C191.7,145.7,191.9,145.6,191.7,145.4z" fill="#B9BBBD"/><path d="M103.2,149.5c-9.7-9.8-19.5-19.6-29.4-29.2c0,0,0,0,0,0c9.6,10,19.4,19.7,29.3,29.3   C103.2,149.7,103.3,149.6,103.2,149.5z" fill="#B9BBBD"/><path d="M111.1,147.2C100.2,136.1,89.2,125,78,114.2c0,0,0,0,0,0c10.8,11.3,21.8,22.3,33,33.2   C111.1,147.5,111.2,147.3,111.1,147.2z" fill="#B9BBBD"/><path d="M121.1,108.7c-2.9-2.1-6.8-2-10.2-2.3c-3.8-0.3-8.1-0.3-11.8-1.3c-0.1,0-0.2,0.2-0.1,0.2   c0.6,0.4,1.1,0.7,1.7,1c-1.8,0-4.4,0-5.6-1c0,0-0.1,0,0,0c2.2,2.7,7.5,3.9,10.8,2.6c0.6,0.1,1.3,0.3,1.9,0.4   c4.1,0.8,8.8,1.5,13,1.5C121.5,110,121.7,109.1,121.1,108.7z" fill="#3E3E3E"/><path d="M190.7,108.7c-3.1-2.2-6.4-2.6-10.1-2.8c-4.8-0.3-10.4-0.3-15.1,0.2c-0.1,0-0.2,0.2-0.1,0.3   c3,1.6,6.7,1.6,10.1,1.9c4.9,0.4,9.8,1.1,14.7,1.8C190.9,110.2,191.4,109.2,190.7,108.7z" fill="#3E3E3E"/></g><g id="smily_top"><path d="M114,91c-4.5,0.6-9.2,0.8-13.8,1.4c-5.1,0.6-10.1,0.1-15-1.2c-0.8-0.2-1.6,0.7-1.1,1.4c2.9,4.8,8.1,6.1,13.3,6.5   c6.9,0.6,12.2-1.8,17.9-5.1C117,93,115.7,90.7,114,91z"/><path d="M166.8,77.6c-3.7,0.7-6.9,2.8-9.9,5.2c-3.8,3-8.6,6.6-10.9,10.9c-0.4,0.8,0.3,1.6,1.1,1.4c6.8-1.6,11.6-8.3,18.3-10.5   c8.1-2.8,13.4,8,19,11.7c0.7,0.5,2-0.1,1.9-1.1C185.2,86.5,176.5,75.7,166.8,77.6z"/><path d="M217.8,118.1c-0.1,0-0.1-0.1-0.2-0.1c0.4-11.7-0.1-12.2-1.2-13.4l-1.2-1.2l-1.8,0c-1,0-2.6,0.1-4.7,0.1   c-4.5,0-9.2-0.1-10.5-0.2c-3.1-0.3-6.4-1.4-9.6-1.7c-5.9-0.6-11.8-1.4-17.8-1.1c-5.9,0.2-11.7,1.1-17.6,1.1c0.1,0,0.3,0,0.4,0   c-2.5-0.4-6.5,0.9-8.8,1.8c-3,1.3-7.2,3.4-9.3,8.1c-1.5-0.4-3.2-0.4-4.7,0c-2-4.6-6.1-6.7-10.3-8.6c0.1,0,0.2-0.1,0.2-0.1   c-0.7,0.3-2.7-0.9-3.4-1.1c-1.2-0.4-2.3-0.5-3.6-0.7c-2.9-0.3-5.9,0-8.8-0.1c-3-0.1-6-0.2-9-0.2c-10,0-22.4,0.7-27.7,2.5   c-1.3,0.1-6,0.2-10.5,0.2c-2,0-3.7,0-4.7-0.1l-0.1,0l-1.8,0l-1.1,1.2c-1.2,1.3-1.7,1.8-1,16.8l0.1,3.1l1.2,0.2l4.2,1.1   c0.1,4.4,0.4,13.9,2,18c3.3,8.9,11.2,15.8,21.7,19c3.9,1.2,7.9,1.8,11.9,1.8c18.6,0,34.5-11.9,39.6-29.7c0.5-1.7,1.4-7.1,1.8-12   c0.5-0.5,1.1-0.8,1.8-0.8c0.7,0,1.3,0.2,1.7,0.6c0.5,5.3,1.4,10.6,1.8,12.1c5.1,17.8,21,29.7,39.6,29.7c4,0,8-0.6,11.9-1.8   c10.5-3.1,18.4-10,21.7-19c1.8-4.8,1.9-14.7,1.9-18.3l4.7-1c0.1,0.1,0.2,0.1,0.3,0.2c0.3-0.1,0.6-0.2,0.9-0.4   C217.8,122.3,217.8,120.2,217.8,118.1z M215.2,121.3l-0.1,1.2l-5.5,1.1l0,1c0.1,6.1-0.3,14.5-1.8,18.4   c-3.1,8.2-10.4,14.6-20.2,17.5c-3.7,1.1-7.5,1.7-11.3,1.7c-17.5,0-32.5-11.3-37.4-28c-0.4-1.5-1.3-6.9-1.8-12.1l0-0.4l-0.2-0.3   c-0.9-1.1-2.2-1.7-3.7-1.7c-1.6,0-3,0.7-3.9,1.9l-0.2,0.3l0,0.3c-0.5,5.1-1.3,10.5-1.8,11.9c-4.8,16.8-19.8,28-37.4,28   c-3.8,0-7.6-0.6-11.3-1.7c-9.8-2.9-17.1-9.3-20.2-17.5c-1.4-3.9-1.8-12.3-1.8-18.4l0-1l-5.5-1.1l-0.1-1.2   c-0.6-13.4-0.2-14.5,0.4-15.1l0.5-0.5l0.8,0c1,0,2.7,0.1,4.8,0.1c5,0,9.7-0.1,10.9-0.3l0.3-0.1c5-1.8,17.7-2.4,27.1-2.4   c5.7,0,19.4,0.2,24.8,2.4c2.8,1.2,6.8,3.3,8.3,7.7l0.4,1.3l1.1-0.5c1.7-0.7,3.5-0.7,5.2,0l1.1,0.4l0.4-1.2c1.6-4.5,5.5-6.6,8.4-7.7   c5.3-2.2,19.1-2.4,24.8-2.4c9.4,0,22.1,0.6,27.1,2.4l0.3,0.1c1.2,0.1,5.9,0.3,10.9,0.3c2.1,0,3.8,0,4.8-0.1l0.8,0l0.5,0.5   C215.4,106.8,215.8,107.9,215.2,121.3z"/><path d="M140.2,118.8c0,0.1,0,0.2,0,0.3h-0.1l0.1,1.3c0.3,4.4,1.1,10.6,1.8,13c4.4,15.4,18.2,25.8,34.4,25.8c3.5,0,7-0.5,10.4-1.5   c8.8-2.6,15.5-8.3,18.2-15.6c1.7-4.5,1.7-17.3,1.5-19.3l-0.3-2.3c0.2-1,0.8-4.5-1.2-7.6c-1.6-2.5-4.5-3.9-8.6-4.3   c-0.8-0.1-2-0.2-3.5-0.4c-5-0.7-13.4-1.8-22.4-1.8c-11.3,0-20.3,0.8-23.6,2.2c-3.7,1.5-5.7,3.3-6.6,5.9c-0.1,0.4-0.3,1.3-0.1,4.3   L140.2,118.8z M142.5,115.1c0.6-1.8,2.3-3.2,5.3-4.5c2.9-1.2,12.1-2,22.7-2c8.9,0,17.2,1.1,22.1,1.8c1.5,0.2,2.7,0.4,3.6,0.4   c3.3,0.3,5.6,1.4,6.9,3.2c1.7,2.5,0.9,5.8,0.9,5.9l-0.1,0.2l0.3,2.7c0.2,1.8,0.1,14.2-1.4,18.2c-2.5,6.6-8.5,11.8-16.7,14.2   c-3.2,1-6.5,1.4-9.8,1.4c-15.1,0-28.1-9.7-32.2-24.1c-0.5-1.8-1.2-6.8-1.6-11.3v-1.1c0-0.6-0.1-1.2-0.2-1.9   C142.3,115.7,142.5,115.1,142.5,115.1z"/><path d="M79.8,157.5c3.4,1,6.9,1.5,10.4,1.5c16.2,0,30-10.3,34.4-25.8c1-3.4,2.4-16.5,1.7-19.1c-0.9-2.5-2.9-4.3-6.6-5.8   c-3.3-1.4-12.3-2.2-23.6-2.2c-8.2,0-16,1-21.1,1.7c-2.1,0.3-3.8,0.5-4.8,0.6c-8.1,0.4-10,7.8-9.8,11.7l-0.3,2.4   c-0.2,2-0.2,14.8,1.5,19.3C64.3,149.2,70.9,154.9,79.8,157.5z M62.4,122.8l0.3-2.6l0-0.1c0-0.4-0.3-8.9,7.7-9.4   c1.1-0.1,2.8-0.3,5-0.6c5-0.7,12.7-1.6,20.8-1.6c10.7,0,19.8,0.8,22.7,2c3,1.3,4.7,2.6,5.3,4.4c0.5,1.7-0.8,14.2-1.7,17.7   c-4.1,14.4-17.1,24.1-32.2,24.1c-3.3,0-6.6-0.5-9.8-1.4c-8.1-2.4-14.2-7.6-16.7-14.2C62.2,137,62.2,124.6,62.4,122.8z"/><path d="M76.4,176c0.4-0.4,0.9-0.7,1.5-1c2.2,7.4,10.4,13.1,16.8,16.5c8.6,4.6,18.5,6.4,28.1,7.2c10.6,0.8,21.2,0,31.7-1.6   c8.4-1.3,17.9-2.9,25.3-7.6c0.2,0.4,0.4,0.8,0.6,1.1c0.3,0.5,0.8,0.7,1.4,0.6c0.5-0.1,1-0.7,0.9-1.2c-0.2-1.4-0.8-3.5-2.2-4.1   c-0.3-0.1-0.6-0.3-0.9-0.2c0.3-0.1-0.2,0-0.3,0c-0.4,0.1-0.5,0.4-0.5,0.7c0,0.1,0.1,0.2,0.2,0.3c0,0.4,0.1,0.9,0.3,1.3c0,0,0,0,0,0   c-7.8,1.5-15.4,4.1-23.3,5.5c-9.7,1.8-19.6,2.4-29.5,2c-9.6-0.4-19.3-2.1-28.2-5.8c-4-1.7-7.8-4-11.2-6.9c-2.9-2.5-4.9-5.6-7.2-8.4   c0.1,0,0.2,0,0.4,0c0.8-0.1,3-0.3,2.2-1.7c-0.8-1.4-3-1-4.3-0.5c-1.2,0.4-2.6,1.4-3.1,2.7C74.5,175.7,75.6,176.7,76.4,176z"/><g><path d="M113.8,210.6c11.6,5.6,25.6,4,37.4-0.2c0.6-0.2,0.5-1.2-0.2-1.2c-5.8,0.2-11.4,1.5-17.1,2.4c-6.9,1.1-13.4,0.7-20-1.4    C113.7,210.2,113.6,210.5,113.8,210.6L113.8,210.6z"/></g></g></svg>