<svg width="529.08125px" height="107.6px" xmlns="http://www.w3.org/2000/svg" viewBox="-14.540624999999977 21.200000000000003 529.08125 107.6" style="background: rgba(0, 0, 0, 0);" preserveAspectRatio="xMidYMid"><defs><linearGradient id="editing-shiny-gradient" x1="0.04322727117869957" x2="0.9567727288213004" y1="0.2966316784620999" y2="0.7033683215379001" gradientUnits="objectBoundingBox"><stop offset="0.0" stop-color="#ff4500"></stop><stop offset="0.5" stop-color="#ff6347"></stop><stop offset="1.0" stop-color="#5a1a80"></stop></linearGradient><linearGradient id="editing-shiny-gradient2" x1="0" x2="0" y1="0" y2="1"><stop offset="0.2" stop-color="#fff" stop-opacity="0.8"></stop><stop offset="0.8" stop-color="#fff" stop-opacity="0"></stop></linearGradient><filter id="editing-shiny2" x="-100%" y="-100%" width="300%" height="300%"><feMorphology operator="erode" radius="2"></feMorphology></filter><filter id="editing-shiny" x="-100%" y="-100%" width="300%" height="300%"><feFlood flood-color="#fff" result="flood"></feFlood><feConvolveMatrix in="SourceGraphic" result="conv" order="8,8" divisor="1" kernelMatrix="0 0 0 0 0 0 0 0 0 0 0 1 1 0 0 0 0 0 0 1 1 0 0 0 0 0 1 0 0 1 0 0 0 0 1 0 0 1 0 0 0 1 0 0 0 0 1 0 0 1 1 0 0 1 1 0 0 0 0 1 1 0 0 0 "></feConvolveMatrix><feOffset dx="0" dy="4" in="conv" result="offset"></feOffset><feComposite operator="in" in="flood" in2="offset" result="comp"></feComposite><feGaussianBlur in="offset" stdDeviation="3" result="shadow"></feGaussianBlur><feColorMatrix in="shadow" type="matrix" values="0.7 0 0 0 0  0 0.7 0 0 0  0 0 0.7 0 0  0 0 0 0.3 0" result="dark-shadow"></feColorMatrix><feOffset dx="0" dy="4" in="dark-shadow" result="offset-shadow"></feOffset><feOffset dx="0" dy="2" in="conv" result="offset-2"></feOffset><feComposite operator="out" in="offset" in2="offset-2" result="edge-diff"></feComposite><feGaussianBlur in="edge-diff" stdDeviation="1" result="edge-blur"></feGaussianBlur><feColorMatrix in="edge-blur" result="edge-shadow" type="matrix" values="0 0 0 0 0  0 0 0 0 0  0 0 0 0 0  0 0 0 0.5 0"></feColorMatrix><feComposite operator="in" in="edge-shadow" in2="offset" result="edge-shadow-in"></feComposite><feOffset dx="0" dy="1" in="edge-shadow-in" result="edge-shadow-final"></feOffset><feMerge result="out"><feMergeNode in="offset-shadow"></feMergeNode><feMergeNode in="comp"></feMergeNode><feMergeNode in="edge-shadow-final"></feMergeNode><feMergeNode in="SourceGraphic"></feMergeNode></feMerge></filter></defs><g filter="url(#editing-shiny)"><g transform="translate(59.279982566833496, 105.0238265991211)"><path d="M61.95-46.08L43.71 2.05L32.90-25.60L21.06 2.18L2.62-46.08L9.86-46.08L21.82-12.42L29.82-33.41L24.90-46.08L31.04-46.08L43.90-13.12L55.30-46.08L61.95-46.08ZM100.22 0L95.42-12.16L77.63-12.16L72.70 0L66.56 0L86.78-48.19L87.17-48.19L107.39 0L100.22 0ZM79.87-17.54L93.31-17.54L86.72-34.43L79.87-17.54ZM139.97-38.02L139.97-38.02Q137.47-39.36 134.66-40.19L134.66-40.19L134.66-40.19Q131.84-41.02 129.34-41.02L129.34-41.02L129.34-41.02Q125.57-41.02 123.36-39.33L123.36-39.33L123.36-39.33Q121.15-37.63 121.15-34.69L121.15-34.69L121.15-34.69Q121.15-31.81 123.74-29.98L123.74-29.98L123.74-29.98Q126.34-28.16 131.14-26.37L131.14-26.37L131.14-26.37Q134.72-25.09 137.18-23.58L137.18-23.58L137.18-23.58Q139.65-22.08 141.28-19.42L141.28-19.42L141.28-19.42Q142.91-16.77 142.91-12.67L142.91-12.67L142.91-12.67Q142.91-8.96 141.06-5.95L141.06-5.95L141.06-5.95Q139.20-2.94 135.78-1.22L135.78-1.22L135.78-1.22Q132.35 0.51 127.74 0.51L127.74 0.51L127.74 0.51Q123.46 0.51 119.49-0.86L119.49-0.86L119.49-0.86Q115.52-2.24 112.51-4.35L112.51-4.35L115.26-9.28L115.26-9.28Q117.63-7.49 120.96-6.24L120.96-6.24L120.96-6.24Q124.29-4.99 127.17-4.99L127.17-4.99L127.17-4.99Q130.88-4.99 133.66-6.91L133.66-6.91L133.66-6.91Q136.45-8.83 136.45-12.61L136.45-12.61L136.45-12.61Q136.45-15.81 134.11-17.70L134.11-17.70L134.11-17.70Q131.78-19.58 127.55-21.25L127.55-21.25L127.55-21.25Q123.65-22.72 121.06-24.13L121.06-24.13L121.06-24.13Q118.46-25.54 116.61-28L116.61-28L116.61-28Q114.75-30.46 114.75-34.18L114.75-34.18L114.75-34.18Q114.75-39.62 118.56-42.98L118.56-42.98L118.56-42.98Q122.37-46.34 128.45-46.53L128.45-46.53L128.45-46.53Q135.94-46.53 142.34-42.82L142.34-42.82L139.97-38.02ZM149.89-46.27L180.61-46.27L180.61-40.32L168.19-40.32L168.19 0L161.98 0L161.98-40.32L149.89-40.32L149.89-46.27ZM190.53-46.27L220.61-46.27L220.61-40.32L196.74-40.32L196.74-26.24L218.05-26.24L218.05-20.29L196.74-20.29L196.74-6.02L221.50-6.02L221.50 0L190.53 0L190.53-46.27ZM232.32 0L232.32-46.27L244.99-46.27L244.99-46.27Q253.63-46.27 259.30-42.85L259.30-42.85L259.30-42.85Q264.96-39.42 267.55-34.02L267.55-34.02L267.55-34.02Q270.14-28.61 270.14-22.59L270.14-22.59L270.14-22.59Q270.14-15.87 267.01-10.72L267.01-10.72L267.01-10.72Q263.87-5.57 258.62-2.78L258.62-2.78L258.62-2.78Q253.38 0 247.23 0L247.23 0L232.32 0ZM238.53-6.02L246.02-6.02L246.02-6.02Q251.14-6.02 255.17-8.03L255.17-8.03L255.17-8.03Q259.20-10.05 261.47-13.89L261.47-13.89L261.47-13.89Q263.74-17.73 263.74-23.04L263.74-23.04L263.74-23.04Q263.74-28.48 261.38-32.38L261.38-32.38L261.38-32.38Q259.01-36.29 255.07-38.30L255.07-38.30L255.07-38.30Q251.14-40.32 246.59-40.32L246.59-40.32L238.53-40.32L238.53-6.02ZM276.10-3.39L276.10-3.39Q276.10-4.80 277.12-5.82L277.12-5.82L277.12-5.82Q278.14-6.85 279.49-6.85L279.49-6.85L279.49-6.85Q280.70-6.85 281.76-5.82L281.76-5.82L281.76-5.82Q282.82-4.80 282.82-3.39L282.82-3.39L282.82-3.39Q282.82-1.92 281.79-0.96L281.79-0.96L281.79-0.96Q280.77 0 279.49 0L279.49 0L279.49 0Q278.14 0 277.12-0.96L277.12-0.96L277.12-0.96Q276.10-1.92 276.10-3.39L276.10-3.39ZM306.69-27.58L306.69-27.58Q310.40-27.58 313.41-25.79L313.41-25.79L313.41-25.79Q316.42-24 318.14-20.77L318.14-20.77L318.14-20.77Q319.87-17.54 319.87-13.31L319.87-13.31L319.87-13.31Q319.87-9.15 318.02-5.98L318.02-5.98L318.02-5.98Q316.16-2.82 312.90-1.09L312.90-1.09L312.90-1.09Q309.63 0.64 305.60 0.64L305.60 0.64L305.60 0.64Q302.72 0.64 300.10-0.61L300.10-0.61L300.10-0.61Q297.47-1.86 295.87-3.97L295.87-3.97L295.87 12.74L289.92 12.74L289.92-26.94L295.10-26.94L295.62-22.46L295.62-22.46Q297.66-24.77 300.51-26.18L300.51-26.18L300.51-26.18Q303.36-27.58 306.69-27.58L306.69-27.58ZM304.45-4.16L304.45-4.16Q306.94-4.16 309.09-5.34L309.09-5.34L309.09-5.34Q311.23-6.53 312.51-8.61L312.51-8.61L312.51-8.61Q313.79-10.69 313.79-13.25L313.79-13.25L313.79-13.25Q313.79-15.87 312.61-17.98L312.61-17.98L312.61-17.98Q311.42-20.10 309.38-21.31L309.38-21.31L309.38-21.31Q307.33-22.53 304.83-22.53L304.83-22.53L304.83-22.53Q301.44-22.53 299.04-20.64L299.04-20.64L299.04-20.64Q296.64-18.75 295.87-15.55L295.87-15.55L295.87-11.14L295.87-11.14Q296.38-8.06 298.78-6.11L298.78-6.11L298.78-6.11Q301.18-4.16 304.45-4.16L304.45-4.16ZM333.63-20.22L333.63-20.22Q334.66-22.40 336.54-24.06L336.54-24.06L336.54-24.06Q338.43-25.73 340.54-26.62L340.54-26.62L340.54-26.62Q342.66-27.52 344.26-27.58L344.26-27.58L344.00-21.63L344.00-21.63Q341.12-21.76 338.78-20.48L338.78-20.48L338.78-20.48Q336.45-19.20 335.14-16.93L335.14-16.93L335.14-16.93Q333.82-14.66 333.82-12.10L333.82-12.10L333.82 0L327.87 0L327.87-26.50L333.18-26.50L333.63-20.22ZM349.63-13.50L349.63-13.50Q349.63-17.41 351.52-20.64L351.52-20.64L351.52-20.64Q353.41-23.87 356.77-25.73L356.77-25.73L356.77-25.73Q360.13-27.58 364.35-27.58L364.35-27.58L364.35-27.58Q368.58-27.58 371.87-25.73L371.87-25.73L371.87-25.73Q375.17-23.87 376.99-20.67L376.99-20.67L376.99-20.67Q378.82-17.47 378.82-13.50L378.82-13.50L378.82-13.50Q378.82-9.54 376.99-6.30L376.99-6.30L376.99-6.30Q375.17-3.07 371.84-1.22L371.84-1.22L371.84-1.22Q368.51 0.64 364.22 0.64L364.22 0.64L364.22 0.64Q360.06 0.64 356.74-1.12L356.74-1.12L356.74-1.12Q353.41-2.88 351.52-6.08L351.52-6.08L351.52-6.08Q349.63-9.28 349.63-13.50L349.63-13.50ZM355.65-13.44L355.65-13.44Q355.65-10.94 356.77-8.83L356.77-8.83L356.77-8.83Q357.89-6.72 359.84-5.50L359.84-5.50L359.84-5.50Q361.79-4.29 364.16-4.29L364.16-4.29L364.16-4.29Q367.87-4.29 370.30-6.91L370.30-6.91L370.30-6.91Q372.74-9.54 372.74-13.44L372.74-13.44L372.74-13.44Q372.74-17.34 370.30-20L370.30-20L370.30-20Q367.87-22.66 364.16-22.66L364.16-22.66L364.16-22.66Q361.73-22.66 359.81-21.41L359.81-21.41L359.81-21.41Q357.89-20.16 356.77-18.05L356.77-18.05L356.77-18.05Q355.65-15.94 355.65-13.44L355.65-13.44Z" fill="url(#editing-shiny-gradient)"></path></g></g><g filter="url(#editing-shiny2)"><g transform="translate(59.280009269714355, 105.46499633789062)"><path d="M61.95-46.08L43.71 2.05L32.90-25.60L21.06 2.18L2.62-46.08L9.86-46.08L21.82-12.42L29.82-33.41L24.90-46.08L31.04-46.08L43.90-13.12L55.30-46.08L61.95-46.08ZM100.22 0L95.42-12.16L77.63-12.16L72.70 0L66.56 0L86.78-48.19L87.17-48.19L107.39 0L100.22 0ZM79.87-17.54L93.31-17.54L86.72-34.43L79.87-17.54ZM139.97-38.02L139.97-38.02Q137.47-39.36 134.66-40.19L134.66-40.19L134.66-40.19Q131.84-41.02 129.34-41.02L129.34-41.02L129.34-41.02Q125.57-41.02 123.36-39.33L123.36-39.33L123.36-39.33Q121.15-37.63 121.15-34.69L121.15-34.69L121.15-34.69Q121.15-31.81 123.74-29.98L123.74-29.98L123.74-29.98Q126.34-28.16 131.14-26.37L131.14-26.37L131.14-26.37Q134.72-25.09 137.18-23.58L137.18-23.58L137.18-23.58Q139.65-22.08 141.28-19.42L141.28-19.42L141.28-19.42Q142.91-16.77 142.91-12.67L142.91-12.67L142.91-12.67Q142.91-8.96 141.06-5.95L141.06-5.95L141.06-5.95Q139.20-2.94 135.78-1.22L135.78-1.22L135.78-1.22Q132.35 0.51 127.74 0.51L127.74 0.51L127.74 0.51Q123.46 0.51 119.49-0.86L119.49-0.86L119.49-0.86Q115.52-2.24 112.51-4.35L112.51-4.35L115.26-9.28L115.26-9.28Q117.63-7.49 120.96-6.24L120.96-6.24L120.96-6.24Q124.29-4.99 127.17-4.99L127.17-4.99L127.17-4.99Q130.88-4.99 133.66-6.91L133.66-6.91L133.66-6.91Q136.45-8.83 136.45-12.61L136.45-12.61L136.45-12.61Q136.45-15.81 134.11-17.70L134.11-17.70L134.11-17.70Q131.78-19.58 127.55-21.25L127.55-21.25L127.55-21.25Q123.65-22.72 121.06-24.13L121.06-24.13L121.06-24.13Q118.46-25.54 116.61-28L116.61-28L116.61-28Q114.75-30.46 114.75-34.18L114.75-34.18L114.75-34.18Q114.75-39.62 118.56-42.98L118.56-42.98L118.56-42.98Q122.37-46.34 128.45-46.53L128.45-46.53L128.45-46.53Q135.94-46.53 142.34-42.82L142.34-42.82L139.97-38.02ZM149.89-46.27L180.61-46.27L180.61-40.32L168.19-40.32L168.19 0L161.98 0L161.98-40.32L149.89-40.32L149.89-46.27ZM190.53-46.27L220.61-46.27L220.61-40.32L196.74-40.32L196.74-26.24L218.05-26.24L218.05-20.29L196.74-20.29L196.74-6.02L221.50-6.02L221.50 0L190.53 0L190.53-46.27ZM232.32 0L232.32-46.27L244.99-46.27L244.99-46.27Q253.63-46.27 259.30-42.85L259.30-42.85L259.30-42.85Q264.96-39.42 267.55-34.02L267.55-34.02L267.55-34.02Q270.14-28.61 270.14-22.59L270.14-22.59L270.14-22.59Q270.14-15.87 267.01-10.72L267.01-10.72L267.01-10.72Q263.87-5.57 258.62-2.78L258.62-2.78L258.62-2.78Q253.38 0 247.23 0L247.23 0L232.32 0ZM238.53-6.02L246.02-6.02L246.02-6.02Q251.14-6.02 255.17-8.03L255.17-8.03L255.17-8.03Q259.20-10.05 261.47-13.89L261.47-13.89L261.47-13.89Q263.74-17.73 263.74-23.04L263.74-23.04L263.74-23.04Q263.74-28.48 261.38-32.38L261.38-32.38L261.38-32.38Q259.01-36.29 255.07-38.30L255.07-38.30L255.07-38.30Q251.14-40.32 246.59-40.32L246.59-40.32L238.53-40.32L238.53-6.02ZM276.10-3.39L276.10-3.39Q276.10-4.80 277.12-5.82L277.12-5.82L277.12-5.82Q278.14-6.85 279.49-6.85L279.49-6.85L279.49-6.85Q280.70-6.85 281.76-5.82L281.76-5.82L281.76-5.82Q282.82-4.80 282.82-3.39L282.82-3.39L282.82-3.39Q282.82-1.92 281.79-0.96L281.79-0.96L281.79-0.96Q280.77 0 279.49 0L279.49 0L279.49 0Q278.14 0 277.12-0.96L277.12-0.96L277.12-0.96Q276.10-1.92 276.10-3.39L276.10-3.39ZM306.69-27.58L306.69-27.58Q310.40-27.58 313.41-25.79L313.41-25.79L313.41-25.79Q316.42-24 318.14-20.77L318.14-20.77L318.14-20.77Q319.87-17.54 319.87-13.31L319.87-13.31L319.87-13.31Q319.87-9.15 318.02-5.98L318.02-5.98L318.02-5.98Q316.16-2.82 312.90-1.09L312.90-1.09L312.90-1.09Q309.63 0.64 305.60 0.64L305.60 0.64L305.60 0.64Q302.72 0.64 300.10-0.61L300.10-0.61L300.10-0.61Q297.47-1.86 295.87-3.97L295.87-3.97L295.87 12.74L289.92 12.74L289.92-26.94L295.10-26.94L295.62-22.46L295.62-22.46Q297.66-24.77 300.51-26.18L300.51-26.18L300.51-26.18Q303.36-27.58 306.69-27.58L306.69-27.58ZM304.45-4.16L304.45-4.16Q306.94-4.16 309.09-5.34L309.09-5.34L309.09-5.34Q311.23-6.53 312.51-8.61L312.51-8.61L312.51-8.61Q313.79-10.69 313.79-13.25L313.79-13.25L313.79-13.25Q313.79-15.87 312.61-17.98L312.61-17.98L312.61-17.98Q311.42-20.10 309.38-21.31L309.38-21.31L309.38-21.31Q307.33-22.53 304.83-22.53L304.83-22.53L304.83-22.53Q301.44-22.53 299.04-20.64L299.04-20.64L299.04-20.64Q296.64-18.75 295.87-15.55L295.87-15.55L295.87-11.14L295.87-11.14Q296.38-8.06 298.78-6.11L298.78-6.11L298.78-6.11Q301.18-4.16 304.45-4.16L304.45-4.16ZM333.63-20.22L333.63-20.22Q334.66-22.40 336.54-24.06L336.54-24.06L336.54-24.06Q338.43-25.73 340.54-26.62L340.54-26.62L340.54-26.62Q342.66-27.52 344.26-27.58L344.26-27.58L344.00-21.63L344.00-21.63Q341.12-21.76 338.78-20.48L338.78-20.48L338.78-20.48Q336.45-19.20 335.14-16.93L335.14-16.93L335.14-16.93Q333.82-14.66 333.82-12.10L333.82-12.10L333.82 0L327.87 0L327.87-26.50L333.18-26.50L333.63-20.22ZM349.63-13.50L349.63-13.50Q349.63-17.41 351.52-20.64L351.52-20.64L351.52-20.64Q353.41-23.87 356.77-25.73L356.77-25.73L356.77-25.73Q360.13-27.58 364.35-27.58L364.35-27.58L364.35-27.58Q368.58-27.58 371.87-25.73L371.87-25.73L371.87-25.73Q375.17-23.87 376.99-20.67L376.99-20.67L376.99-20.67Q378.82-17.47 378.82-13.50L378.82-13.50L378.82-13.50Q378.82-9.54 376.99-6.30L376.99-6.30L376.99-6.30Q375.17-3.07 371.84-1.22L371.84-1.22L371.84-1.22Q368.51 0.64 364.22 0.64L364.22 0.64L364.22 0.64Q360.06 0.64 356.74-1.12L356.74-1.12L356.74-1.12Q353.41-2.88 351.52-6.08L351.52-6.08L351.52-6.08Q349.63-9.28 349.63-13.50L349.63-13.50ZM355.65-13.44L355.65-13.44Q355.65-10.94 356.77-8.83L356.77-8.83L356.77-8.83Q357.89-6.72 359.84-5.50L359.84-5.50L359.84-5.50Q361.79-4.29 364.16-4.29L364.16-4.29L364.16-4.29Q367.87-4.29 370.30-6.91L370.30-6.91L370.30-6.91Q372.74-9.54 372.74-13.44L372.74-13.44L372.74-13.44Q372.74-17.34 370.30-20L370.30-20L370.30-20Q367.87-22.66 364.16-22.66L364.16-22.66L364.16-22.66Q361.73-22.66 359.81-21.41L359.81-21.41L359.81-21.41Q357.89-20.16 356.77-18.05L356.77-18.05L356.77-18.05Q355.65-15.94 355.65-13.44L355.65-13.44Z" fill="url(#editing-shiny-gradient2)"></path></g></g><style>text {
  font-size: 64px;
  font-family: Arial Black;
  dominant-baseline: central;
  text-anchor: middle;
}</style></svg>